<?xml version="1.0" encoding="UTF-8" standalone="no"?>
<!-- Created with Inkscape (http://www.inkscape.org/) -->
<svg
   xmlns:svg="http://www.w3.org/2000/svg"
   xmlns="http://www.w3.org/2000/svg"
   version="1.0"
   width="40"
   height="23"
   id="svg3509">
  <defs
     id="defs3511" />
  <g
     transform="translate(-409.54451,-357.04318)"
     id="layer1">
    <path
       d="M 421.91694,357.04318 C 419.6345,357.04318 417.79717,358.9181 417.79717,361.24725 L 417.79717,366.64866 L 410.20052,358.89657 C 410.01885,358.71118 409.72619,358.71117 409.54451,358.89657 L 409.54451,378.24335 C 409.72617,378.42872 410.01884,378.42874 410.20052,378.24335 L 417.79717,370.49316 L 417.79717,375.8391 C 417.79716,378.16827 419.6345,380.04319 421.91694,380.04318 L 445.42474,380.04318 C 447.7072,380.04319 449.54451,378.16826 449.54451,375.8391 L 449.54451,361.24725 C 449.54452,358.91811 447.70719,357.04318 445.42474,357.04318 L 421.91694,357.04318 z M 433.67084,360.12833 C 438.22321,360.12835 441.91788,363.89861 441.91788,368.54413 C 441.91789,372.59132 439.11274,375.97393 435.38023,376.77823 C 435.36514,375.8279 434.6057,375.06063 433.67084,375.06065 C 432.73599,375.06065 431.97654,375.82789 431.96146,376.77823 C 428.22894,375.97395 425.42381,372.5913 425.42381,368.54413 C 425.42381,363.89863 429.11847,360.12833 433.67084,360.12833 z M 433.67084,360.81499 C 432.72657,360.815 431.95957,361.59765 431.95958,362.56126 C 431.95957,363.52488 432.72656,364.30563 433.67084,364.30563 C 434.61513,364.30564 435.3821,363.52487 435.3821,362.56126 C 435.38211,361.59766 434.61513,360.81498 433.67084,360.81499 z M 429.41237,362.79653 C 428.4681,362.79653 427.7011,363.57919 427.70111,364.5428 C 427.7011,365.50642 428.46808,366.28717 429.41237,366.28717 C 430.35666,366.28718 431.12364,365.50641 431.12363,364.5428 C 431.12364,363.5792 430.35665,362.79652 429.41237,362.79653 z M 437.91432,362.79653 C 436.97003,362.79653 436.20306,363.57919 436.20305,364.5428 C 436.20306,365.50642 436.97003,366.28717 437.91432,366.28717 C 438.85861,366.28718 439.62557,365.50641 439.62557,364.5428 C 439.62558,363.5792 438.85859,362.79652 437.91432,362.79653 z M 427.74047,366.75961 C 426.7962,366.75961 426.0292,367.54227 426.02921,368.50588 C 426.0292,369.46949 426.79619,370.25025 427.74047,370.25025 C 428.68476,370.25025 429.45174,369.46949 429.45173,368.50588 C 429.45174,367.54228 428.68476,366.75959 427.74047,366.75961 z M 439.6387,366.75961 C 438.69442,366.75961 437.92744,367.54227 437.92743,368.50588 C 437.92744,369.46949 438.69442,370.25025 439.6387,370.25025 C 440.58299,370.25025 441.34996,369.46949 441.34996,368.50588 C 441.34996,367.54228 440.58297,366.75959 439.6387,366.75961 z"
       id="path3482"
       style="opacity:1;fill:#ff0000;fill-opacity:1;fill-rule:evenodd;stroke:none;stroke-width:54.27700043;stroke-linecap:round;stroke-linejoin:miter;stroke-miterlimit:4;stroke-dasharray:none;stroke-dashoffset:0;stroke-opacity:1" />
  </g>
</svg>
