<?xml version="1.0" encoding="UTF-8" standalone="no"?>
<!-- Created with Inkscape (http://www.inkscape.org/) -->
<svg
   xmlns:svg="http://www.w3.org/2000/svg"
   xmlns="http://www.w3.org/2000/svg"
   version="1.0"
   width="40.000004"
   height="23"
   id="svg3509">
  <defs
     id="defs3511" />
  <g
     transform="translate(-380.80975,-317.18021)"
     id="layer1">
    <path
       d="M 384.9263,317.18021 C 382.64564,317.1802 380.80975,319.05513 380.80975,321.38428 L 380.80975,335.97613 C 380.80975,338.30529 382.64565,340.18022 384.9263,340.18021 L 408.41573,340.18021 C 409.96504,340.18021 411.30893,339.31354 412.01162,338.02844 L 420.67361,329.18228 C 420.85514,328.9969 420.85513,328.69823 420.67361,328.51285 L 412.28881,319.95169 C 411.71786,318.33152 410.20371,317.18021 408.41573,317.18021 L 384.9263,317.18021 z M 396.67102,320.26537 C 401.21982,320.26537 404.91161,324.03565 404.91161,328.68117 C 404.91161,332.72834 402.10867,336.11097 398.37906,336.91526 C 398.36399,335.96492 397.60514,335.19767 396.67102,335.19767 C 395.73689,335.19767 394.97804,335.96492 394.96297,336.91526 C 391.23337,336.11097 388.43043,332.72833 388.43043,328.68117 C 388.43043,324.03565 392.12221,320.26537 396.67102,320.26537 z M 396.67102,320.95202 C 395.72747,320.95202 394.96109,321.73468 394.96109,322.6983 C 394.96109,323.6619 395.72747,324.44267 396.67102,324.44267 C 397.61456,324.44266 398.38094,323.6619 398.38094,322.6983 C 398.38094,321.73469 397.61457,320.95201 396.67102,320.95202 z M 392.41587,322.93356 C 391.47233,322.93356 390.70595,323.71622 390.70595,324.67984 C 390.70595,325.64344 391.47232,326.4242 392.41587,326.4242 C 393.35942,326.4242 394.1258,325.64344 394.1258,324.67984 C 394.1258,323.71623 393.35942,322.93355 392.41587,322.93356 z M 400.91117,322.93356 C 399.96762,322.93356 399.20126,323.71622 399.20125,324.67984 C 399.20125,325.64344 399.96763,326.4242 400.91117,326.4242 C 401.85472,326.4242 402.6211,325.64344 402.6211,324.67984 C 402.6211,323.71623 401.85472,322.93355 400.91117,322.93356 z M 390.74528,326.89663 C 389.80174,326.89663 389.03535,327.6793 389.03536,328.64291 C 389.03536,329.60651 389.80174,330.38728 390.74528,330.38728 C 391.68883,330.38727 392.45521,329.60652 392.4552,328.64291 C 392.4552,327.6793 391.68883,326.89663 390.74528,326.89663 z M 402.63421,326.89663 C 401.69066,326.89663 400.92429,327.6793 400.92428,328.64291 C 400.92428,329.60651 401.69066,330.38728 402.63421,330.38728 C 403.57775,330.38727 404.34413,329.60652 404.34413,328.64291 C 404.34413,327.6793 403.57775,326.89663 402.63421,326.89663 z"
       id="path3442"
       style="opacity:1;fill:#ff0000;fill-opacity:1;fill-rule:evenodd;stroke:none;stroke-width:54.27700043;stroke-linecap:round;stroke-linejoin:miter;stroke-miterlimit:4;stroke-dasharray:none;stroke-dashoffset:0;stroke-opacity:1" />
  </g>
</svg>
