<?xml version="1.0" encoding="UTF-8" standalone="no"?>
<!-- Created with Inkscape (http://www.inkscape.org/) -->
<svg
   xmlns:svg="http://www.w3.org/2000/svg"
   xmlns="http://www.w3.org/2000/svg"
   version="1.0"
   width="40"
   height="23"
   id="svg4745">
  <defs
     id="defs4747" />
  <g
     transform="translate(-408.57143,-318.00523)"
     id="layer1">
    <path
       d="M 421.03032,318.00523 C 418.75501,318.00523 416.92345,319.88009 416.92345,322.20928 L 416.92345,327.71401 L 409.22539,319.8318 C 409.04429,319.64647 408.75254,319.64647 408.57143,319.8318 L 408.57143,339.1786 C 408.75253,339.36399 409.04428,339.36399 409.22539,339.1786 L 416.92345,331.29835 L 416.92345,336.80112 C 416.92346,339.13025 418.75501,341.00529 421.03032,341.00523 L 444.46455,341.00523 C 446.73987,341.00523 448.57143,339.13031 448.57143,336.80112 L 448.57143,322.20928 C 448.57142,319.88009 446.73985,318.00523 444.46455,318.00523 L 421.03032,318.00523 z M 432.74744,319.68264 C 433.79087,319.6827 434.64418,320.95186 435.21941,322.73149 C 435.39492,323.27432 435.54873,323.87377 435.67719,324.5179 C 436.29293,324.33214 436.88106,324.18916 437.43167,324.09332 C 439.23681,323.77878 440.73341,323.95517 441.22278,324.89854 C 441.71213,325.84197 441.016,327.20857 439.75043,328.56324 C 439.4593,328.8749 439.13496,329.19078 438.7807,329.50618 C 439.13514,329.82163 439.46106,330.1355 439.7523,330.44722 C 441.01786,331.80195 441.71213,333.16855 441.22278,334.11192 C 440.73342,335.05529 439.23868,335.23162 437.43354,334.91714 C 436.88241,334.82111 436.29355,334.68052 435.67719,334.49446 C 435.54863,335.13877 435.39499,335.73785 435.21941,336.28087 C 434.64417,338.06043 433.79087,339.32972 432.74744,339.32972 C 431.704,339.32978 430.85071,338.06043 430.27547,336.28087 C 430.09973,335.73724 429.94622,335.13773 429.8177,334.49256 C 429.20115,334.67875 428.61261,334.82105 428.06134,334.91714 C 426.25619,335.23162 424.76145,335.05529 424.27211,334.11192 C 423.78274,333.16855 424.47703,331.80189 425.74258,330.44722 C 426.03363,330.13574 426.36004,329.82151 426.71418,329.50618 C 426.35954,329.19048 426.03578,328.87509 425.74445,328.56324 C 424.47887,327.20857 423.78274,325.84197 424.27211,324.89854 C 424.76146,323.95517 426.25807,323.77878 428.06321,324.09332 C 428.61382,324.18916 429.20194,324.33214 429.8177,324.5179 C 429.94625,323.87365 430.0999,323.2745 430.27547,322.73149 C 430.85071,320.95186 431.704,319.68264 432.74744,319.68264 z M 432.74744,321.03302 L 432.74744,321.03492 C 432.15859,321.03492 431.53298,321.81358 431.0378,323.34544 C 430.89786,323.77835 430.77315,324.26579 430.66411,324.79522 C 431.33654,325.03203 432.03572,325.31688 432.74744,325.64635 C 433.45955,325.3167 434.15798,325.03215 434.83077,324.79522 C 434.7218,324.26647 434.5969,323.77792 434.45708,323.34544 C 433.9619,321.81358 433.33629,321.03302 432.74744,321.03302 z M 426.95334,324.9502 C 426.14465,324.95687 425.62788,325.16558 425.43802,325.53165 C 425.16185,326.06396 425.54065,326.99539 426.6301,328.16155 C 426.85999,328.40759 427.11996,328.66031 427.40551,328.91707 C 428.01632,328.42473 428.69683,327.93772 429.43279,327.46533 C 429.48342,326.75002 429.56029,326.0631 429.66074,325.41304 C 429.15253,325.26345 428.67249,325.14716 428.23324,325.07065 C 427.74763,324.98606 427.32095,324.94708 426.95334,324.9502 z M 438.54153,324.9502 C 438.17393,324.94708 437.74724,324.986 437.26164,325.07065 C 436.82238,325.14716 436.34235,325.26339 435.83414,325.41304 C 435.93456,326.06335 436.01163,326.74965 436.06208,327.46533 C 436.79868,327.93815 437.47808,328.42632 438.08937,328.91897 C 438.37458,328.66215 438.63499,328.40747 438.86477,328.16155 C 439.95423,326.99539 440.33301,326.06402 440.05686,325.53165 C 439.86699,325.16558 439.35023,324.95687 438.54153,324.9502 z M 430.50342,325.68271 C 430.44248,326.07235 430.39084,326.4812 430.34834,326.90303 C 430.61275,326.74788 430.88342,326.59584 431.15924,326.44589 C 431.34589,326.34447 431.53215,326.24703 431.71792,326.1513 C 431.30272,325.97674 430.8968,325.82024 430.50342,325.68271 z M 434.99146,325.68271 C 434.59884,325.81999 434.19323,325.97711 433.77883,326.1513 C 433.96421,326.24684 434.14937,326.34465 434.33563,326.44589 C 434.61221,326.59627 434.88329,326.74934 435.14841,326.90493 C 435.10595,326.48114 435.05269,326.07394 434.99146,325.68271 z M 432.74744,326.6142 C 432.35554,326.80131 431.95948,327.002 431.56097,327.21861 C 431.11086,327.46331 430.67872,327.71793 430.26425,327.97603 C 430.23571,328.47272 430.21941,328.9836 430.21941,329.50618 C 430.21942,330.02869 430.23591,330.53988 430.26425,331.03633 C 430.67881,331.29455 431.11273,331.54721 431.56283,331.79185 C 431.96152,332.00858 432.35756,332.20915 432.74931,332.39626 C 433.13988,332.2097 433.5348,332.00778 433.93204,331.79185 C 434.38214,331.54721 434.81608,331.29455 435.23062,331.03633 C 435.25917,330.54001 435.27546,330.02882 435.27547,329.50618 C 435.27546,328.98373 435.25896,328.47266 435.23062,327.97603 C 434.81616,327.71793 434.38403,327.46331 433.93391,327.21861 C 433.53523,327.00194 433.13942,326.80131 432.74744,326.6142 z M 432.74744,328.1673 C 433.46941,328.1673 434.05536,328.76712 434.05536,329.50618 C 434.05536,330.24524 433.46941,330.84506 432.74744,330.84506 C 432.02546,330.84506 431.43952,330.24524 431.43952,329.50618 C 431.43951,328.76712 432.02546,328.1673 432.74744,328.1673 z M 429.37674,328.55363 C 428.91773,328.86866 428.48961,329.1876 428.09684,329.50428 C 428.49013,329.82102 428.9174,330.1396 429.37674,330.45487 C 429.3668,330.14266 429.36179,329.82629 429.36179,329.50618 C 429.36179,329.18473 429.36666,328.86719 429.37674,328.55363 z M 436.11814,328.55363 C 436.12815,328.86713 436.13309,329.18479 436.13309,329.50618 C 436.13309,329.82702 436.12804,330.14382 436.11814,330.45677 C 436.57759,330.14137 437.00494,329.82127 437.39804,329.50428 C 437.00491,329.1873 436.57762,328.86903 436.11814,328.55363 z M 427.40738,330.09149 C 427.12162,330.34868 426.86033,330.60244 426.6301,330.84885 C 425.54064,332.01501 425.16187,332.94638 425.43802,333.47881 C 425.71419,334.01117 426.6793,334.21052 428.23324,333.93975 C 428.67242,333.86324 429.15277,333.74891 429.66074,333.59932 C 429.56033,332.94876 429.48321,332.26099 429.43279,331.54513 C 428.69666,331.0725 428.01838,330.58414 427.40738,330.09149 z M 438.0875,330.09149 C 437.47704,330.58359 436.79758,331.07287 436.06208,331.54513 C 436.01193,332.2605 435.93645,332.94925 435.836,333.59932 C 436.34332,333.74866 436.82295,333.86336 437.26164,333.93975 C 438.81558,334.21046 439.7807,334.01117 440.05686,333.47881 C 440.33301,332.94644 439.95423,332.01501 438.86477,330.84885 C 438.63436,330.60219 438.37355,330.34892 438.0875,330.09149 z M 430.34647,332.10743 C 430.38891,332.53054 430.44225,332.93701 430.50342,333.32769 C 430.89627,333.19034 431.30136,333.03341 431.71605,332.8591 C 431.53136,332.76398 431.34668,332.66734 431.16112,332.56647 C 430.88408,332.41591 430.61202,332.26338 430.34647,332.10743 z M 435.14654,332.10743 C 434.88145,332.26307 434.61031,332.41615 434.33376,332.56647 C 434.14787,332.66752 433.96384,332.7657 433.77883,332.86106 C 434.19291,333.03519 434.59892,333.19053 434.99146,333.32769 C 435.05246,332.93781 435.10402,332.52944 435.14654,332.10743 z M 432.74931,333.36405 C 432.03625,333.69425 431.33588,333.978 430.66224,334.21517 C 430.77133,334.74454 430.89785,335.23211 431.0378,335.66502 C 431.53298,337.19694 432.15859,337.97744 432.74744,337.97744 C 433.33629,337.97744 433.9619,337.19694 434.45708,335.66502 C 434.59703,335.23217 434.72173,334.74442 434.83077,334.21517 C 434.15851,333.97837 433.46072,333.69309 432.74931,333.36405 z"
       id="path4735"
       style="opacity:1;fill:#ff0000;fill-opacity:1;fill-rule:evenodd;stroke:none;stroke-width:54.27700043;stroke-linecap:round;stroke-linejoin:miter;stroke-miterlimit:4;stroke-dasharray:none;stroke-dashoffset:0;stroke-opacity:1" />
  </g>
</svg>
