<?xml version="1.0" encoding="UTF-8" standalone="no"?>
<!-- Created with Inkscape (http://www.inkscape.org/) -->
<svg
   xmlns:dc="http://purl.org/dc/elements/1.1/"
   xmlns:cc="http://creativecommons.org/ns#"
   xmlns:rdf="http://www.w3.org/1999/02/22-rdf-syntax-ns#"
   xmlns:svg="http://www.w3.org/2000/svg"
   xmlns="http://www.w3.org/2000/svg"
   xmlns:sodipodi="http://sodipodi.sourceforge.net/DTD/sodipodi-0.dtd"
   xmlns:inkscape="http://www.inkscape.org/namespaces/inkscape"
   width="40"
   height="23"
   id="svg4745"
   sodipodi:version="0.32"
   inkscape:version="0.46"
   version="1.0"
   sodipodi:docname="atom_out_generic.svg"
   inkscape:output_extension="org.inkscape.output.svg.inkscape">
  <defs
     id="defs4747">
    <inkscape:perspective
       sodipodi:type="inkscape:persp3d"
       inkscape:vp_x="0 : 526.18109 : 1"
       inkscape:vp_y="0 : 1000 : 0"
       inkscape:vp_z="744.09448 : 526.18109 : 1"
       inkscape:persp3d-origin="372.04724 : 350.78739 : 1"
       id="perspective4753" />
  </defs>
  <sodipodi:namedview
     id="base"
     pagecolor="#ffffff"
     bordercolor="#666666"
     borderopacity="1.0"
     gridtolerance="10000"
     guidetolerance="10"
     objecttolerance="10"
     inkscape:pageopacity="0.0"
     inkscape:pageshadow="2"
     inkscape:zoom="13.325"
     inkscape:cx="20"
     inkscape:cy="11.5"
     inkscape:document-units="px"
     inkscape:current-layer="layer1"
     showgrid="false"
     inkscape:window-width="640"
     inkscape:window-height="646"
     inkscape:window-x="194"
     inkscape:window-y="122" />
  <metadata
     id="metadata4750">
    <rdf:RDF>
      <cc:Work
         rdf:about="">
        <dc:format>image/svg+xml</dc:format>
        <dc:type
           rdf:resource="http://purl.org/dc/dcmitype/StillImage" />
      </cc:Work>
    </rdf:RDF>
  </metadata>
  <g
     inkscape:label="Layer 1"
     inkscape:groupmode="layer"
     id="layer1"
     transform="translate(-406.95792,-315.99679)">
    <path
       style="opacity:1;fill:#ff0000;fill-opacity:1;fill-rule:evenodd;stroke:none;stroke-width:54.27700043;stroke-linecap:round;stroke-linejoin:miter;stroke-miterlimit:4;stroke-dasharray:none;stroke-dashoffset:0;stroke-opacity:1"
       d="M 411.08104,315.99679 C 408.79672,315.99679 406.95792,317.87165 406.95792,320.20084 L 406.95792,334.79268 C 406.95794,337.12181 408.79673,338.99685 411.08104,338.99679 L 434.60792,338.99679 C 436.334,338.99679 437.80529,337.92557 438.42151,336.39744 L 446.82156,327.83247 C 447.00338,327.64708 447.00337,327.34846 446.82156,327.163 L 438.42151,318.59614 C 437.80529,317.06802 436.33398,315.99679 434.60792,315.99679 L 411.08104,315.99679 z M 422.84448,317.6742 C 423.89203,317.67426 424.74872,318.94342 425.32622,320.72305 C 425.50243,321.26588 425.65684,321.86533 425.7858,322.50946 C 426.40398,322.3237 426.99444,322.18072 427.54723,322.08488 C 429.3595,321.77034 430.86203,321.94673 431.35332,322.8901 C 431.84461,323.83353 431.14572,325.20013 429.87515,326.5548 C 429.58287,326.86646 429.25725,327.18234 428.90159,327.49774 C 429.25743,327.81319 429.58464,328.12706 429.87703,328.43878 C 431.14759,329.79351 431.84461,331.16011 431.35332,332.10348 C 430.86203,333.04685 429.36138,333.22318 427.5491,332.9087 C 426.99579,332.81267 426.40461,332.67208 425.7858,332.48602 C 425.65673,333.13033 425.5025,333.72941 425.32622,334.27243 C 424.74871,336.05199 423.89203,337.32128 422.84448,337.32128 C 421.79691,337.32134 420.94024,336.05199 420.36273,334.27243 C 420.1863,333.7288 420.03219,333.12929 419.90315,332.48412 C 419.28416,332.67031 418.6933,332.81261 418.13985,332.9087 C 416.32757,333.22318 414.82692,333.04685 414.33563,332.10348 C 413.84433,331.16011 414.54136,329.79345 415.81192,328.43878 C 416.10412,328.1273 416.43182,327.81307 416.78736,327.49774 C 416.43133,327.18204 416.10628,326.86665 415.8138,326.5548 C 414.54321,325.20013 413.84434,323.83353 414.33563,322.8901 C 414.82692,321.94673 416.32945,321.77034 418.14173,322.08488 C 418.69452,322.18072 419.28496,322.3237 419.90315,322.50946 C 420.03221,321.86521 420.18647,321.26606 420.36273,320.72305 C 420.94025,318.94342 421.79692,317.6742 422.84448,317.6742 z M 422.84448,319.02458 L 422.84448,319.02648 C 422.25329,319.02648 421.62522,319.80514 421.12807,321.337 C 420.98758,321.76991 420.86238,322.25735 420.75291,322.78678 C 421.428,323.02359 422.12994,323.30844 422.84448,323.63791 C 423.5594,323.30826 424.2606,323.02371 424.93605,322.78678 C 424.82665,322.25803 424.70125,321.76948 424.56088,321.337 C 424.06374,319.80514 423.43566,319.02458 422.84448,319.02458 z M 417.02747,322.94176 C 416.21558,322.94843 415.69677,323.15714 415.50616,323.52321 C 415.22889,324.05552 415.60919,324.98695 416.70295,326.15311 C 416.93374,326.39915 417.19474,326.65187 417.48143,326.90863 C 418.09465,326.41629 418.77785,325.92928 419.51672,325.45689 C 419.56755,324.74158 419.64473,324.05466 419.74558,323.4046 C 419.23535,323.25501 418.75342,323.13872 418.31243,323.06221 C 417.82489,322.97762 417.39653,322.93864 417.02747,322.94176 z M 428.66148,322.94176 C 428.29243,322.93864 427.86405,322.97756 427.37652,323.06221 C 426.93552,323.13872 426.45359,323.25495 425.94338,323.4046 C 426.04419,324.05491 426.12157,324.74121 426.17223,325.45689 C 426.91173,325.92971 427.59382,326.41788 428.20752,326.91053 C 428.49387,326.65371 428.7553,326.39903 428.986,326.15311 C 430.07975,324.98695 430.46004,324.05558 430.18279,323.52321 C 429.99217,323.15714 429.47337,322.94843 428.66148,322.94176 z M 420.59158,323.67427 C 420.53041,324.06391 420.47855,324.47276 420.43589,324.89459 C 420.70135,324.73944 420.97309,324.5874 421.25001,324.43745 C 421.43738,324.33603 421.62438,324.23859 421.81088,324.14286 C 421.39405,323.9683 420.98653,323.8118 420.59158,323.67427 z M 425.09737,323.67427 C 424.7032,323.81155 424.29599,323.96867 423.87994,324.14286 C 424.06606,324.2384 424.25195,324.33621 424.43895,324.43745 C 424.71662,324.58783 424.98877,324.7409 425.25494,324.89649 C 425.21231,324.4727 425.15884,324.0655 425.09737,323.67427 z M 422.84448,324.60576 C 422.45103,324.79287 422.0534,324.99356 421.65331,325.21017 C 421.20142,325.45487 420.76758,325.70949 420.35147,325.96759 C 420.32282,326.46428 420.30645,326.97516 420.30645,327.49774 C 420.30646,328.02025 420.32302,328.53144 420.35147,329.02789 C 420.76767,329.28611 421.20331,329.53877 421.65519,329.78341 C 422.05544,330.00014 422.45306,330.20071 422.84635,330.38782 C 423.23847,330.20126 423.63495,329.99934 424.03376,329.78341 C 424.48563,329.53877 424.92129,329.28611 425.33748,329.02789 C 425.36613,328.53157 425.38249,328.02038 425.3825,327.49774 C 425.38249,326.97529 425.36592,326.46422 425.33748,325.96759 C 424.92138,325.70949 424.48754,325.45487 424.03564,325.21017 C 423.63538,324.9935 423.23801,324.79287 422.84448,324.60576 z M 422.84448,326.15886 C 423.5693,326.15886 424.15757,326.75868 424.15757,327.49774 C 424.15756,328.2368 423.5693,328.83662 422.84448,328.83662 C 422.11964,328.83662 421.53138,328.2368 421.53138,327.49774 C 421.53138,326.75868 422.11965,326.15886 422.84448,326.15886 z M 419.46045,326.54519 C 418.99963,326.86022 418.56981,327.17916 418.17549,327.49584 C 418.57033,327.81258 418.99929,328.13116 419.46045,328.44643 C 419.45047,328.13422 419.44544,327.81785 419.44544,327.49774 C 419.44543,327.17629 419.45033,326.85875 419.46045,326.54519 z M 426.2285,326.54519 C 426.23855,326.85869 426.24351,327.17635 426.24351,327.49774 C 426.2435,327.81858 426.23844,328.13538 426.2285,328.44833 C 426.68977,328.13293 427.11881,327.81283 427.51346,327.49584 C 427.11878,327.17886 426.6898,326.86059 426.2285,326.54519 z M 417.4833,328.08305 C 417.19641,328.34024 416.93409,328.594 416.70295,328.84041 C 415.60919,330.00657 415.22891,330.93794 415.50616,331.47037 C 415.78341,332.00273 416.75234,332.20208 418.31243,331.93131 C 418.75334,331.8548 419.2356,331.74047 419.74558,331.59088 C 419.64476,330.94032 419.56735,330.25255 419.51672,329.53669 C 418.77768,329.06406 418.09672,328.5757 417.4833,328.08305 z M 428.20565,328.08305 C 427.59278,328.57515 426.91063,329.06443 426.17223,329.53669 C 426.12187,330.25206 426.04609,330.94081 425.94525,331.59088 C 426.45458,331.74022 426.9361,331.85492 427.37652,331.93131 C 428.9366,332.20202 429.90554,332.00273 430.18279,331.47037 C 430.46004,330.938 430.07977,330.00657 428.986,328.84041 C 428.75467,328.59375 428.49283,328.34048 428.20565,328.08305 z M 420.43401,330.09899 C 420.47662,330.5221 420.53017,330.92857 420.59158,331.31925 C 420.98599,331.1819 421.39268,331.02497 421.80901,330.85066 C 421.62359,330.75554 421.43818,330.6589 421.25188,330.55803 C 420.97375,330.40747 420.70061,330.25494 420.43401,330.09899 z M 425.25306,330.09899 C 424.98692,330.25463 424.71471,330.40771 424.43707,330.55803 C 424.25045,330.65908 424.06569,330.75726 423.87994,330.85262 C 424.29566,331.02675 424.70327,331.18209 425.09737,331.31925 C 425.15861,330.92937 425.21037,330.521 425.25306,330.09899 z M 422.84635,331.35561 C 422.13048,331.68581 421.42733,331.96956 420.75103,332.20673 C 420.86055,332.7361 420.98757,333.22367 421.12807,333.65658 C 421.62522,335.1885 422.2533,335.969 422.84448,335.969 C 423.43565,335.969 424.06374,335.1885 424.56088,333.65658 C 424.70138,333.22373 424.82657,332.73598 424.93605,332.20673 C 424.26113,331.96993 423.56058,331.68465 422.84635,331.35561 z"
       id="path4739" />
  </g>
</svg>
