<?xml version="1.0" encoding="UTF-8" standalone="no"?>
<!-- Created with Inkscape (http://www.inkscape.org/) -->
<svg
   xmlns:svg="http://www.w3.org/2000/svg"
   xmlns="http://www.w3.org/2000/svg"
   version="1.0"
   width="40.000004"
   height="23.000004"
   id="svg3509">
  <defs
     id="defs3511" />
  <g
     transform="translate(-387.42523,-325.75699)"
     id="layer1">
    <path
       d="M 406.64967,325.7571 C 401.6299,325.75523 396.60873,325.7785 391.5894,325.76282 C 389.6815,325.71111 387.88802,327.23742 387.54939,329.14363 C 387.39223,333.97389 387.51809,338.8163 387.48018,343.65077 C 387.10548,345.90127 388.68897,348.34947 390.95347,348.65429 C 398.64616,348.7433 406.34489,348.6686 414.03952,348.69243 C 415.81773,349.01389 417.78523,348.11088 418.6687,346.52054 L 427.28927,337.73198 C 427.47056,337.54715 427.47055,337.24942 427.28927,337.06458 L 418.90624,328.52009 C 418.36932,327.131 417.17318,326.00338 415.68358,325.80286 C 412.67271,325.76927 409.66153,325.75822 406.64967,325.7571 z M 395.7435,328.23216 C 396.03158,330.59172 395.85062,332.97764 396.05773,335.34272 C 396.29148,334.505 395.83453,333.37453 396.34015,332.70367 C 396.29218,333.23167 396.55204,335.32338 396.65438,333.6609 C 397.21074,333.32619 396.76893,335.38166 397.09579,335.90142 C 397.23577,333.50636 397.17051,331.10242 397.34268,328.70887 C 397.67343,330.58901 397.3955,332.51471 397.68683,334.39884 C 397.70771,333.75775 397.87472,331.10569 398.02349,332.94774 C 397.9602,333.65307 398.25223,335.51514 398.25168,333.802 C 398.56298,332.72857 398.48027,334.99513 398.55655,335.35226 C 398.72205,336.28984 398.69667,333.81249 398.72862,333.35771 C 398.76011,331.67934 398.75569,329.99658 398.91005,328.32368 C 399.3383,330.27375 398.90698,332.30575 399.25794,334.25964 C 399.27134,333.52813 399.56692,332.6926 399.59461,333.97934 C 399.69972,334.463 400.17481,334.18647 400.06033,335.03381 C 400.01745,335.76245 400.27247,336.49486 400.31096,335.26454 C 400.39294,333.74584 400.31188,332.21199 400.58404,330.70913 C 400.87181,332.08337 400.61154,334.71915 400.88517,335.33318 C 400.8035,334.66044 401.16537,332.58599 401.25363,334.36071 C 401.32647,335.28147 401.42808,335.12765 401.47808,334.26155 C 401.8304,333.54625 401.65701,337.22327 401.97186,335.63256 C 402.14572,334.41916 401.84172,333.10606 402.29543,331.95619 C 402.49121,333.06849 402.33293,335.55517 402.57786,335.80417 C 402.48652,335.2365 402.74568,333.02055 402.94632,334.6658 C 402.91702,335.16145 403.02477,336.67018 403.27364,335.32365 C 403.40273,334.94902 403.7725,336.97047 403.80857,335.57917 C 403.9072,334.62987 403.78135,332.24809 404.17703,332.24794 C 404.31979,333.59112 404.30632,334.94564 404.45198,336.28851 C 404.39946,335.57282 404.93604,333.96924 404.92144,335.53149 C 404.94767,336.71528 406.01977,335.90231 405.57981,335.13106 C 405.6581,334.2611 405.4996,331.86386 405.89778,331.96573 C 406.11975,333.36235 405.88594,334.79776 406.18207,336.18554 C 406.05396,335.45116 406.58262,333.11079 406.54867,335.07958 C 406.43388,335.92409 407.47505,336.89803 407.32113,335.43043 C 407.41244,334.6142 407.27591,332.51778 407.64097,332.52824 C 407.86957,333.72278 407.67253,334.95806 407.93649,336.1474 C 407.8547,335.4064 408.49219,334.98726 408.37602,335.96244 C 409.42499,337.00787 409.12439,334.25886 409.19338,333.41873 C 409.15988,332.66175 409.41119,330.94534 409.5712,332.59689 C 409.68347,333.82778 409.53311,335.07683 409.75823,336.29804 C 409.69034,335.82379 410.19072,334.25836 410.23705,335.55819 C 410.1536,336.70533 411.47699,335.8115 411.07685,334.95944 C 410.87296,334.18556 411.54887,333.24683 411.49581,334.56664 C 411.26282,335.51356 411.79959,337.17846 412.87989,336.04062 C 413.22215,335.74753 413.11862,334.03231 413.42604,335.30649 C 413.46548,336.02489 413.66869,336.4034 413.94601,335.54103 C 414.24229,335.89736 414.71903,337.1486 415.03643,336.0635 C 415.86306,336.18261 416.76016,336.58248 417.39311,336.13215 C 417.42734,336.12108 417.46405,336.11384 417.50159,336.10736 L 417.50159,337.46311 C 416.2685,337.59206 414.96166,337.85229 414.06384,337.87499 C 413.67485,337.60859 413.7726,339.97036 413.42978,338.30212 C 413.38876,337.0779 412.98302,338.36874 412.67228,338.24682 C 412.07354,336.53134 411.84306,339.24547 411.54818,338.7998 C 411.68105,337.99007 410.8869,337.38541 411.10303,338.56145 C 411.17742,339.71083 410.52123,339.03295 410.74392,338.23919 C 410.45831,337.00135 410.49118,339.96846 410.18468,338.45848 C 409.90835,336.84929 409.9175,339.92767 409.8611,340.49497 C 409.44577,341.59421 409.66074,338.95406 409.53753,338.44322 C 409.1293,336.89352 409.24142,339.49789 409.21582,340.03543 C 408.93598,341.83079 408.83873,339.2446 408.84175,338.66441 C 408.74352,337.37497 408.8991,338.64874 408.36106,338.65488 C 408.33438,337.71316 408.05472,337.91265 408.05245,338.71018 C 407.82935,340.64844 407.65116,336.52026 407.45019,338.22966 C 407.39641,338.65305 407.41005,341.23468 407.08547,339.94199 C 407.0901,339.48691 407.03638,338.14161 406.78808,339.30129 C 406.47655,338.8747 406.50439,336.94029 406.38033,338.46992 C 406.47522,338.96339 406.04692,341.14226 405.98007,339.53393 C 406.12128,338.83631 405.66229,336.87502 405.65837,338.7159 C 405.70766,339.31281 405.52327,341.57495 405.30674,339.89431 C 405.25749,339.21957 404.6317,336.92758 404.65772,338.67014 C 404.71829,339.50706 404.19364,339.82787 404.32292,338.76167 C 404.43276,338.15926 403.89928,337.27876 403.96568,338.39364 C 403.78524,339.34171 404.21536,340.59505 403.60657,341.34732 C 403.47028,340.3461 403.47188,338.16283 403.27551,337.91121 C 403.25583,338.85322 402.81851,338.91948 402.82101,337.95317 C 402.68659,338.14486 402.5903,340.84966 402.37773,339.14112 C 402.42558,338.66835 402.20652,337.0652 402.17573,338.37648 C 402.08615,339.57321 402.1424,342.21781 401.8615,342.49332 C 401.62526,341.04677 401.8038,339.55949 401.55102,338.11906 C 401.55909,338.96239 401.12773,339.50829 401.18443,338.33834 C 400.92981,337.81951 400.98436,339.84221 401.00674,340.31191 C 401.06458,341.04255 400.59181,341.50142 400.68878,340.51785 C 400.63917,339.88791 400.76506,338.20728 400.5167,338.24301 C 400.42111,340.18228 400.52504,342.13499 400.23428,344.06074 C 399.99684,341.93643 400.10964,339.78886 399.86581,337.66524 C 399.91891,338.31428 399.5728,338.0584 399.4562,337.91884 C 399.37071,339.98949 399.39746,342.06762 399.18687,344.13129 C 398.92355,342.16383 399.10515,340.17127 398.93811,338.19724 C 398.73164,340.96965 398.87039,343.75581 398.66316,346.52817 C 398.35327,344.37254 398.55012,342.18406 398.42936,340.01635 C 398.57847,339.17371 398.14233,338.60446 397.89444,338.09999 C 397.74221,339.47648 397.96197,341.83236 397.63258,342.64777 C 397.35319,341.01768 397.56811,339.35626 397.40627,337.71672 C 397.12769,341.01518 397.36515,344.33329 397.09579,347.63223 C 396.84027,344.38367 396.97231,341.12203 396.81523,337.86927 C 396.7302,338.4833 396.56256,341.05665 396.41684,339.17354 C 396.47982,338.40692 396.14995,337.36476 396.19239,338.73496 C 396.14507,340.59539 396.25944,342.46022 396.08578,344.31625 C 395.64403,342.20213 396.02965,340.01395 395.7061,337.88833 C 395.51564,341.34001 395.67805,344.80452 395.44986,348.25576 C 395.14387,344.7643 395.42365,341.24615 395.11319,337.75676 C 394.94032,338.14243 394.6953,340.00398 394.57078,338.61293 C 394.82347,337.73616 394.03894,337.49404 394.33137,338.58051 C 394.45327,339.18861 393.98077,341.23404 393.91428,339.53011 C 394.06278,338.90382 393.48223,337.06113 393.23159,338.65679 C 392.87194,340.29065 392.55508,336.13381 391.9242,338.23156 C 391.61905,338.3093 391.27774,337.3149 391.34438,338.24491 C 390.9847,337.88122 390.05788,337.51213 390.05008,338.36505 C 389.70184,336.55937 389.82471,341.12024 389.4553,339.22502 C 389.46307,338.61935 389.33082,337.28738 389.14482,338.632 C 388.97044,337.94997 388.26501,336.64888 387.54003,337.84829 C 387.79033,337.47996 387.91053,337.08693 387.98331,336.65653 C 389.30715,337.46498 389.09224,333.57611 389.48149,335.61539 C 389.69974,336.81183 389.80703,333.48901 390.01828,335.24547 C 389.69944,336.36088 391.36775,336.39316 391.54825,335.49718 C 391.5489,335.43353 391.55336,335.36413 391.56321,335.28933 C 391.56698,335.36357 391.56127,335.43254 391.54825,335.49718 C 391.54173,336.1385 391.96943,336.22893 392.18979,336.06731 C 392.47892,335.7837 392.65462,335.76968 392.81262,336.13977 C 393.26299,335.64023 392.86607,333.54599 393.22785,333.80391 C 393.18691,334.13044 393.35421,335.3586 393.67861,334.46367 C 393.75962,334.97057 394.04195,336.87788 394.19296,335.32938 C 394.14819,334.59929 394.63423,332.51891 394.62689,334.38168 C 394.61409,335.07816 394.75608,336.22922 395.07391,334.94419 C 395.81613,336.25457 395.38082,333.78594 395.52841,333.14796 C 395.56294,331.50821 395.61588,329.86747 395.7435,328.23216 z M 399.4562,337.91884 C 399.45694,337.90106 399.45732,337.88324 399.45807,337.86545 C 399.39992,337.827 399.41158,337.86544 399.4562,337.91884 z"
       id="path3440"
       style="fill:#0000ff;fill-opacity:1;fill-rule:evenodd;stroke:none;stroke-width:54.27700043;stroke-linecap:round;stroke-linejoin:miter;stroke-miterlimit:4;stroke-dashoffset:0;stroke-opacity:1" />
  </g>
</svg>
