<?xml version="1.0" encoding="UTF-8" standalone="no"?>
<!-- Created with Inkscape (http://www.inkscape.org/) -->
<svg
   xmlns:svg="http://www.w3.org/2000/svg"
   xmlns="http://www.w3.org/2000/svg"
   version="1.0"
   width="40"
   height="23.000002"
   id="svg3509">
  <defs
     id="defs3511" />
  <g
     transform="translate(-417.14285,-395.1479)"
     id="layer1">
    <path
       d="M 441.55721,395.14941 C 437.53808,395.15404 433.51744,395.16767 429.49884,395.15513 C 427.58945,395.10343 425.79458,396.62966 425.45568,398.53573 C 425.38857,400.59646 425.37381,402.6597 425.37518,404.723 L 417.79799,397.00465 C 417.61656,396.81984 417.32429,396.81986 417.14285,397.00465 L 417.14285,416.29101 C 417.32427,416.47581 417.61656,416.47582 417.79799,416.29101 L 425.38642,408.56312 C 425.39284,410.05579 425.39812,411.54813 425.38642,413.04007 C 425.01142,415.29043 426.59614,417.73848 428.86242,418.04327 C 436.56112,418.13228 444.26585,418.05949 451.9665,418.08331 C 454.14373,418.47659 456.60429,417.03792 457.01484,414.74848 C 457.11075,411.97054 457.10792,409.18885 457.09533,406.40662 C 457.05929,406.55286 456.89597,406.6859 456.54875,406.78225 C 455.05065,406.79626 453.16934,407.23679 451.99083,407.26655 C 451.60153,407.00018 451.69937,409.3618 451.35627,407.69365 C 451.31522,406.4695 450.90916,407.76028 450.59818,407.63836 C 449.99897,405.92297 449.76832,408.63694 449.47321,408.1913 C 449.60618,407.38164 448.81141,406.7751 449.02771,407.95106 C 449.10216,409.10038 448.44358,408.42445 448.66645,407.63074 C 448.38062,406.39298 448.41538,409.3599 448.10864,407.85001 C 447.83211,406.24093 447.84125,409.3191 447.78481,409.88637 C 447.36915,410.98555 447.58242,408.34556 447.45912,407.83475 C 447.05056,406.28515 447.16465,408.88935 447.13903,409.42685 C 446.85896,411.22208 446.76164,408.63417 446.76466,408.05402 C 446.66636,406.76467 446.82205,408.03835 446.2836,408.04449 C 446.2569,407.10284 445.97515,407.30231 445.97287,408.09978 C 445.74959,410.03791 445.57314,405.91191 445.37201,407.6212 C 445.31819,408.04454 445.33184,410.62603 445.007,409.33343 C 445.01165,408.87838 444.95788,407.53316 444.70938,408.69277 C 444.39762,408.26621 444.42548,406.33191 444.30132,407.86144 C 444.39628,408.3549 443.96765,410.53362 443.90075,408.92539 C 444.04208,408.22779 443.58272,406.26475 443.5788,408.1055 C 443.62812,408.70239 443.44359,410.9663 443.22689,409.28576 C 443.1776,408.61107 442.55132,406.3173 442.57737,408.05974 C 442.63798,408.89662 442.11292,409.21739 442.2423,408.15126 C 442.35223,407.54891 441.81834,406.67037 441.88478,407.78518 C 441.7042,408.73319 442.13279,409.98645 441.52352,410.73867 C 441.38712,409.73752 441.3906,407.55438 441.19408,407.30278 C 441.17438,408.24473 440.73672,408.31098 440.73922,407.34473 C 440.6047,407.53639 440.50833,410.24103 440.29559,408.53261 C 440.34348,408.05988 440.12239,406.45682 440.09157,407.76802 C 440.00192,408.96468 440.05821,411.6072 439.7771,411.88269 C 439.54067,410.43624 439.71934,408.95095 439.46637,407.51061 C 439.47445,408.35389 439.04462,408.89785 439.10136,407.72798 C 438.84655,407.20915 438.90114,409.23365 438.92354,409.70333 C 438.98142,410.43393 438.50641,410.89085 438.60345,409.90734 C 438.55381,409.27745 438.68167,407.59692 438.43311,407.63264 C 438.33745,409.57181 438.44146,411.52629 438.15047,413.45191 C 437.91285,411.32776 438.02572,409.18029 437.78172,407.05681 C 437.83486,407.70583 437.48847,407.44805 437.37179,407.3085 C 437.28614,409.37966 437.31307,411.45829 437.10224,413.52246 C 436.83871,411.55513 437.02047,409.56269 436.85328,407.58878 C 436.64666,410.361 436.78552,413.14701 436.57813,415.9192 C 436.268,413.76371 436.46499,411.57345 436.34414,409.40588 C 436.49338,408.56329 436.05689,407.99598 435.80881,407.49154 C 435.65645,408.86795 435.87639,411.22368 435.54675,412.03904 C 435.26714,410.40905 435.48223,408.74774 435.32025,407.1083 C 435.04145,410.40656 435.27723,413.72446 435.00766,417.02318 C 434.75193,413.77483 434.88595,410.51148 434.72875,407.25893 C 434.64366,407.87293 434.47588,410.44801 434.33005,408.56501 C 434.39308,407.79845 434.06295,406.75637 434.10543,408.12648 C 434.05807,409.9868 434.17253,411.85149 433.99874,413.70742 C 433.55665,411.5934 433.94069,409.40347 433.61688,407.27799 C 433.42628,410.72945 433.59069,414.19375 433.36231,417.64477 C 433.0561,414.15352 433.33608,410.63751 433.02538,407.14833 C 432.85239,407.53399 432.60717,409.39541 432.48255,408.00445 C 432.73543,407.12772 431.9503,406.88563 432.24295,407.97204 C 432.36494,408.58007 431.89208,410.62539 431.82554,408.92158 C 431.97416,408.29533 431.39315,406.45275 431.14231,408.04831 C 430.78238,409.68205 430.46527,405.52549 429.8339,407.62311 C 429.52853,407.70085 429.18694,406.7065 429.25363,407.63646 C 428.89367,407.27279 427.96613,406.90181 427.95832,407.75467 C 427.6098,405.9491 427.73091,410.5097 427.36121,408.6146 C 427.36898,408.00897 427.2385,406.67898 427.05235,408.02351 C 426.99208,407.78796 426.86822,407.47736 426.70232,407.2227 L 426.93817,406.98246 C 427.1196,406.79764 427.11959,406.49992 426.93817,406.3151 L 426.60124,405.97189 C 427.14625,405.34383 427.09227,403.45236 427.38928,405.00711 C 427.60771,406.20347 427.71508,402.88085 427.9265,404.63719 C 427.60741,405.75256 429.27702,405.78482 429.45766,404.88889 C 429.45831,404.82524 429.46278,404.75586 429.47264,404.68106 C 429.47641,404.7553 429.4707,404.82426 429.45766,404.88889 C 429.45114,405.53017 429.87917,405.6187 430.0997,405.45709 C 430.38906,405.1735 430.5649,405.16138 430.72302,405.53144 C 431.17374,405.03191 430.77651,402.93783 431.13857,403.19573 C 431.0976,403.52222 431.26502,404.75033 431.58968,403.85545 C 431.67076,404.36233 431.95331,406.2695 432.10444,404.72109 C 432.05963,403.99108 432.54605,401.9108 432.5387,403.77346 C 432.52589,404.46991 432.668,405.62089 432.98608,404.33594 C 433.72888,405.64624 433.29323,403.17775 433.44093,402.53982 C 433.47549,400.90018 433.52847,399.25954 433.65619,397.62433 C 433.94449,399.98373 433.76339,402.36951 433.97066,404.73445 C 434.2046,403.89676 433.74729,402.76446 434.25331,402.09365 C 434.2053,402.62163 434.46535,404.71511 434.56778,403.05273 C 435.12457,402.71805 434.68242,404.77338 435.00953,405.29311 C 435.14963,402.89817 435.08431,400.49442 435.25661,398.101 C 435.58762,399.98104 435.30947,401.90662 435.60103,403.79062 C 435.62193,403.14958 435.78907,400.49767 435.93796,402.33961 C 435.87462,403.04491 436.16687,404.90686 436.16632,403.19383 C 436.47787,402.12046 436.39509,404.38497 436.47143,404.74207 C 436.63706,405.67961 436.61166,403.20431 436.64364,402.74957 C 436.67515,401.0713 436.67073,399.38863 436.82521,397.71585 C 437.2538,399.66579 436.82214,401.69575 437.17337,403.64953 C 437.18678,402.91807 437.48259,402.08259 437.5103,403.36924 C 437.6155,403.85286 438.09096,403.57635 437.97639,404.42364 C 437.93347,405.15226 438.18869,405.88652 438.22722,404.65628 C 438.30925,403.13768 438.22813,401.60391 438.5005,400.10115 C 438.78851,401.47531 438.52615,404.11091 438.79999,404.72492 C 438.71826,404.05222 439.08229,401.97789 439.17062,403.75249 C 439.24353,404.6732 439.3452,404.51748 439.39524,403.65143 C 439.74784,402.93616 439.57432,406.61297 439.88941,405.02236 C 440.0634,403.80905 439.75917,402.49792 440.21323,401.34813 C 440.40916,402.46037 440.24889,404.94497 440.49401,405.19396 C 440.40259,404.62633 440.66383,402.41242 440.86463,404.05756 C 440.83531,404.55316 440.94314,406.06181 441.19221,404.71538 C 441.3214,404.34078 441.69146,406.36209 441.72755,404.97088 C 441.82626,404.02164 441.70032,401.64001 442.0963,401.63985 C 442.23918,402.98296 442.22569,404.33739 442.37146,405.68017 C 442.3189,404.96454 442.85403,403.35914 442.83942,404.9213 C 442.86566,406.10502 443.94048,405.294 443.50018,404.52279 C 443.57853,403.6529 443.4199,401.2558 443.81839,401.35766 C 444.04054,402.7542 443.80654,404.18952 444.10291,405.5772 C 443.97469,404.84285 444.50376,402.50265 444.46979,404.47132 C 444.35491,405.31576 445.3969,406.28966 445.24286,404.82215 C 445.33424,404.00597 445.1976,401.90968 445.56294,401.92014 C 445.79172,403.11461 445.59453,404.34981 445.85869,405.53907 C 445.77683,404.79813 446.41482,404.37901 446.29858,405.35412 C 447.34836,406.3995 447.04752,403.65064 447.11657,402.81058 C 447.08305,402.05365 447.33454,400.33735 447.49468,401.98878 C 447.60704,403.2196 447.45656,404.46857 447.68186,405.6897 C 447.61392,405.21546 448.11468,403.64825 448.16105,404.948 C 448.07755,406.09504 449.40197,405.20319 449.00151,404.35119 C 448.79745,403.57736 449.47389,402.63868 449.4208,403.95841 C 449.18763,404.90528 449.7248,406.57007 450.80596,405.4323 C 451.14848,405.13925 451.04488,403.42222 451.35254,404.69631 C 451.39201,405.41468 451.59538,405.79506 451.8729,404.93274 C 452.16942,405.28905 452.64653,406.54021 452.96418,405.45518 C 453.79146,405.57429 454.68926,405.97413 455.3227,405.52382 C 455.90024,405.3372 456.99221,405.82389 457.09345,406.27506 C 457.08409,404.2488 457.07094,402.22349 457.08784,400.19838 C 457.4629,397.94794 455.87823,395.49809 453.61184,395.19327 C 449.59421,395.14849 445.57635,395.14479 441.55721,395.14941 z M 457.09345,406.27506 C 457.09365,406.3183 457.09513,406.36149 457.09533,406.40472 C 457.10543,406.36241 457.10324,406.31866 457.09345,406.27506 z M 437.37179,407.3085 C 437.37249,407.29135 437.37294,407.27417 437.37366,407.25702 C 437.31546,407.21857 437.32713,407.25509 437.37179,407.3085 z"
       id="path3480"
       style="fill:#0000ff;fill-opacity:1;fill-rule:evenodd;stroke:none;stroke-width:54.27700043;stroke-linecap:round;stroke-linejoin:miter;stroke-miterlimit:4;stroke-dashoffset:0;stroke-opacity:1" />
  </g>
</svg>
