<?xml version="1.0" encoding="UTF-8" standalone="no"?>
<!-- Created with Inkscape (http://www.inkscape.org/) -->
<svg
   xmlns:svg="http://www.w3.org/2000/svg"
   xmlns="http://www.w3.org/2000/svg"
   version="1.0"
   width="40"
   height="23"
   id="svg3509">
  <defs
     id="defs3511" />
  <g
     transform="translate(-388.86368,-337.86931)"
     id="layer1">
    <path
       d="M 401.23553,337.86931 C 398.95319,337.8693 397.11595,339.74422 397.11595,342.07339 L 397.11595,347.44611 L 389.51966,339.69592 C 389.338,339.51053 389.04535,339.51053 388.86368,339.69592 L 388.86368,359.0427 C 389.04533,359.22808 389.33799,359.2281 389.51966,359.0427 L 397.11595,351.2906 L 397.11595,356.66524 C 397.11596,358.99439 398.95318,360.86932 401.23553,360.86931 L 424.74223,360.86931 C 427.02457,360.86931 428.86368,358.99439 428.86368,356.66524 L 428.86368,342.07339 C 428.86369,339.74423 427.02457,337.86931 424.74223,337.86931 L 401.23553,337.86931 z M 403.95692,342.8002 L 404.35426,342.8002 C 405.08848,342.8002 405.67935,343.4032 405.67935,344.15247 C 405.67935,344.90173 405.08847,345.50474 404.35426,345.50474 L 403.95692,345.50474 C 403.22271,345.50474 402.63183,344.90174 402.63183,344.15247 C 402.63184,343.40319 403.22271,342.8002 403.95692,342.8002 z M 409.32287,342.8002 L 422.44254,342.8002 C 423.17675,342.8002 423.76763,343.4032 423.76763,344.15247 C 423.76763,344.90173 423.17675,345.50474 422.44254,345.50474 L 409.32287,345.50474 C 408.58866,345.50474 407.99778,344.90174 407.99778,344.15247 C 407.99779,343.40319 408.58866,342.8002 409.32287,342.8002 z M 409.32287,347.73684 L 422.44254,347.73684 C 423.17675,347.73683 423.76763,348.33983 423.76763,349.0891 C 423.76763,349.83837 423.17675,350.44137 422.44254,350.44137 L 409.32287,350.44137 C 408.58866,350.44137 407.99778,349.83837 407.99778,349.0891 C 407.99779,348.33983 408.58866,347.73684 409.32287,347.73684 z M 409.32287,352.67347 L 422.44254,352.67347 C 423.17675,352.67346 423.76763,353.27647 423.76763,354.02574 C 423.76763,354.775 423.17675,355.378 422.44254,355.378 L 409.32287,355.378 C 408.58866,355.378 407.99778,354.775 407.99778,354.02574 C 407.99779,353.27646 408.58866,352.67347 409.32287,352.67347 z"
       id="path3488"
       style="opacity:1;fill:#00f200;fill-opacity:1;fill-rule:evenodd;stroke:none;stroke-width:22.28300095;stroke-linecap:round;stroke-linejoin:miter;stroke-miterlimit:4;stroke-dasharray:none;stroke-dashoffset:0;stroke-opacity:1" />
  </g>
</svg>
