<?xml version="1.0" encoding="UTF-8" standalone="no"?>
<!-- Created with Inkscape (http://www.inkscape.org/) -->
<svg
   xmlns:dc="http://purl.org/dc/elements/1.1/"
   xmlns:cc="http://creativecommons.org/ns#"
   xmlns:rdf="http://www.w3.org/1999/02/22-rdf-syntax-ns#"
   xmlns:svg="http://www.w3.org/2000/svg"
   xmlns="http://www.w3.org/2000/svg"
   xmlns:sodipodi="http://sodipodi.sourceforge.net/DTD/sodipodi-0.dtd"
   xmlns:inkscape="http://www.inkscape.org/namespaces/inkscape"
   width="40"
   height="23"
   id="svg3314"
   sodipodi:version="0.32"
   inkscape:version="0.46"
   version="1.0"
   sodipodi:docname="float_out.svg"
   inkscape:output_extension="org.inkscape.output.svg.inkscape">
  <defs
     id="defs3316">
    <inkscape:perspective
       sodipodi:type="inkscape:persp3d"
       inkscape:vp_x="0 : 526.18109 : 1"
       inkscape:vp_y="0 : 1000 : 0"
       inkscape:vp_z="744.09448 : 526.18109 : 1"
       inkscape:persp3d-origin="372.04724 : 350.78739 : 1"
       id="perspective3322" />
  </defs>
  <sodipodi:namedview
     id="base"
     pagecolor="#ffffff"
     bordercolor="#666666"
     borderopacity="1.0"
     gridtolerance="10000"
     guidetolerance="10"
     objecttolerance="10"
     inkscape:pageopacity="0.0"
     inkscape:pageshadow="2"
     inkscape:zoom="7.9195959"
     inkscape:cx="27.070161"
     inkscape:cy="9.7771527"
     inkscape:document-units="px"
     inkscape:current-layer="layer1"
     showgrid="false"
     inkscape:window-width="640"
     inkscape:window-height="646"
     inkscape:window-x="0"
     inkscape:window-y="36" />
  <metadata
     id="metadata3319">
    <rdf:RDF>
      <cc:Work
         rdf:about="">
        <dc:format>image/svg+xml</dc:format>
        <dc:type
           rdf:resource="http://purl.org/dc/dcmitype/StillImage" />
      </cc:Work>
    </rdf:RDF>
  </metadata>
  <g
     inkscape:label="Layer 1"
     inkscape:groupmode="layer"
     id="layer1"
     transform="translate(-345.71429,-420.86218)">
    <path
       style="opacity:1;fill:#00be00;fill-opacity:1;fill-rule:evenodd;stroke:none;stroke-width:22.28300095000000169;stroke-linecap:round;stroke-linejoin:miter;stroke-miterlimit:4;stroke-dasharray:none;stroke-dashoffset:0;stroke-opacity:1"
       d="M 349.84748,420.86218 C 347.5576,420.86216 345.71429,422.7371 345.71429,425.06625 L 345.71429,439.6581 C 345.71429,441.9873 347.5576,443.86217 349.84748,443.86218 L 373.43187,443.86218 C 375.22378,443.86221 376.74305,442.71382 377.31873,441.09836 L 385.57759,432.69786 C 385.75986,432.51246 385.75985,432.21379 385.57759,432.02841 L 377.31873,423.62791 C 376.74351,422.01157 375.22441,420.86218 373.43187,420.86218 L 349.84748,420.86218 z M 361.63968,423.75224 C 366.31263,423.75228 370.10539,427.61005 370.10539,432.36313 C 370.10539,437.11626 366.31262,440.97211 361.63968,440.97211 C 356.96674,440.97216 353.17397,437.11622 353.17397,432.36313 C 353.17397,429.49922 354.55096,426.96102 356.66781,425.39523 L 360.66937,433.46293 C 360.77387,433.67353 361.02514,433.75597 361.23162,433.64846 L 362.89017,432.78583 C 363.09665,432.67836 363.17894,432.42076 363.07445,432.21012 L 359.07853,424.15581 C 359.88684,423.89479 360.74676,423.75224 361.63968,423.75224 z"
       id="path3289" />
  </g>
</svg>
