<?xml version="1.0" encoding="UTF-8" standalone="no"?>
<!-- Created with Inkscape (http://www.inkscape.org/) -->
<svg
   xmlns:dc="http://purl.org/dc/elements/1.1/"
   xmlns:cc="http://creativecommons.org/ns#"
   xmlns:rdf="http://www.w3.org/1999/02/22-rdf-syntax-ns#"
   xmlns:svg="http://www.w3.org/2000/svg"
   xmlns="http://www.w3.org/2000/svg"
   xmlns:sodipodi="http://sodipodi.sourceforge.net/DTD/sodipodi-0.dtd"
   xmlns:inkscape="http://www.inkscape.org/namespaces/inkscape"
   width="40"
   height="23"
   id="svg3314"
   sodipodi:version="0.32"
   inkscape:version="0.46"
   version="1.0"
   sodipodi:docname="float_in.svg"
   inkscape:output_extension="org.inkscape.output.svg.inkscape">
  <defs
     id="defs3316">
    <inkscape:perspective
       sodipodi:type="inkscape:persp3d"
       inkscape:vp_x="0 : 526.18109 : 1"
       inkscape:vp_y="0 : 1000 : 0"
       inkscape:vp_z="744.09448 : 526.18109 : 1"
       inkscape:persp3d-origin="372.04724 : 350.78739 : 1"
       id="perspective3322" />
  </defs>
  <sodipodi:namedview
     id="base"
     pagecolor="#ffffff"
     bordercolor="#666666"
     borderopacity="1.0"
     gridtolerance="10000"
     guidetolerance="10"
     objecttolerance="10"
     inkscape:pageopacity="0.0"
     inkscape:pageshadow="2"
     inkscape:zoom="7.9195959"
     inkscape:cx="27.070161"
     inkscape:cy="9.7771527"
     inkscape:document-units="px"
     inkscape:current-layer="layer1"
     showgrid="false"
     inkscape:window-width="640"
     inkscape:window-height="646"
     inkscape:window-x="13"
     inkscape:window-y="45" />
  <metadata
     id="metadata3319">
    <rdf:RDF>
      <cc:Work
         rdf:about="">
        <dc:format>image/svg+xml</dc:format>
        <dc:type
           rdf:resource="http://purl.org/dc/dcmitype/StillImage" />
      </cc:Work>
    </rdf:RDF>
  </metadata>
  <g
     inkscape:label="Layer 1"
     inkscape:groupmode="layer"
     id="layer1"
     transform="translate(-345.91734,-413.29555)">
    <path
       style="opacity:1;fill:#00be00;fill-opacity:1;fill-rule:evenodd;stroke:none;stroke-width:22.28300095000000169;stroke-linecap:round;stroke-linejoin:miter;stroke-miterlimit:4;stroke-dasharray:none;stroke-dashoffset:0;stroke-opacity:1"
       d="M 358.33758,413.29555 C 356.0591,413.29553 354.22495,415.17047 354.22495,417.49962 L 354.22495,422.94503 L 346.57222,415.12216 C 346.39086,414.93677 346.09871,414.93679 345.91734,415.12216 L 345.91734,434.46894 C 346.0987,434.65432 346.39085,434.6543 346.57222,434.46894 L 354.22495,426.64798 L 354.22495,432.09147 C 354.22495,434.42067 356.0591,436.29554 358.33758,436.29555 L 381.80471,436.29555 C 384.0832,436.29559 385.91734,434.42063 385.91734,432.09147 L 385.91734,417.49962 C 385.91734,415.1705 384.08319,413.29555 381.80471,413.29555 L 358.33758,413.29555 z M 370.07114,416.18561 C 374.72086,416.18565 378.49476,420.04342 378.49476,424.7965 C 378.49476,429.54963 374.72085,433.40548 370.07114,433.40548 C 365.42144,433.40553 361.64753,429.54959 361.64753,424.7965 C 361.64753,421.93259 363.01767,419.39439 365.124,417.8286 L 369.10567,425.8963 C 369.20964,426.1069 369.45967,426.18934 369.66512,426.08183 L 371.31541,425.2192 C 371.52087,425.11173 371.60276,424.85413 371.49878,424.64349 L 367.52273,416.58918 C 368.32703,416.32816 369.18267,416.18561 370.07114,416.18561 z"
       id="path3285" />
  </g>
</svg>
