<?xml version="1.0" encoding="UTF-8" standalone="no"?>
<!-- Created with Inkscape (http://www.inkscape.org/) -->
<svg
   xmlns:svg="http://www.w3.org/2000/svg"
   xmlns="http://www.w3.org/2000/svg"
   version="1.0"
   width="40.000004"
   height="23"
   id="svg3509">
  <defs
     id="defs3511" />
  <g
     transform="translate(-386.89796,-304.19352)"
     id="layer1">
    <path
       d="M 391.01638,304.19352 C 388.73572,304.19352 386.89796,306.06843 386.89796,308.39759 L 386.89983,322.98944 C 386.89983,325.3186 388.73385,327.19352 391.01451,327.19352 L 414.50581,327.19352 C 416.07377,327.19353 417.43115,326.30849 418.12605,324.99776 L 426.76182,316.1803 C 426.94335,315.9949 426.94334,315.69623 426.76182,315.51086 L 418.36953,306.94013 C 417.79095,305.33393 416.28215,304.19352 414.50394,304.19352 L 391.01638,304.19352 z M 399.41055,306.29364 C 399.54856,306.29715 399.68299,306.3665 399.76639,306.48682 C 399.76718,306.48797 399.76749,306.4895 399.76827,306.49065 L 402.69368,312.41614 C 402.70251,312.43405 402.71434,312.4502 402.72551,312.46587 L 404.31932,315.69257 C 404.43168,315.91997 404.34281,316.19623 404.1208,316.31227 L 402.33783,317.24566 C 402.11581,317.36172 401.84714,317.27222 401.73477,317.04483 L 398.89926,311.30678 C 398.89347,311.28767 398.88592,311.2679 398.87678,311.2494 L 398.41606,310.31792 C 398.41781,310.3165 398.4199,310.31552 398.42168,310.3141 L 398.41419,310.3141 L 397.68003,308.82795 C 397.68377,308.8235 397.68729,308.81895 397.69126,308.81456 L 397.69126,308.81264 C 397.68697,308.81596 397.68238,308.81884 397.67815,308.82221 L 397.18934,307.83144 C 397.12046,307.61843 397.21064,307.38214 397.41221,307.27676 L 399.19517,306.34337 C 399.26455,306.30711 399.33818,306.29181 399.41055,306.29364 z M 402.75923,307.08358 C 407.41335,307.08358 411.19085,310.9414 411.19085,315.69447 C 411.19085,320.44758 407.41335,324.30345 402.75923,324.30345 C 398.1051,324.30347 394.3276,320.44757 394.3276,315.69447 C 394.3276,313.42149 395.19244,311.35278 396.60313,309.81297 L 397.38599,311.39859 C 396.47737,312.58225 395.93452,314.073 395.93452,315.69257 C 395.93452,319.5407 398.9912,322.66429 402.75923,322.66429 C 406.52724,322.6643 409.58581,319.54071 409.58581,315.69257 C 409.58581,311.84443 406.52724,308.72082 402.75923,308.72084 C 402.65192,308.72085 402.54501,308.72342 402.43897,308.72849 L 401.66173,307.15626 C 402.02101,307.10843 402.38708,307.08358 402.75923,307.08358 z"
       id="path3446"
       style="opacity:1;fill:#00f200;fill-opacity:1;fill-rule:evenodd;stroke:none;stroke-width:27.26199913;stroke-linecap:round;stroke-linejoin:miter;stroke-miterlimit:4;stroke-dasharray:none;stroke-dashoffset:0;stroke-opacity:1" />
  </g>
</svg>
