<?xml version="1.0" encoding="UTF-8" standalone="no"?>
<!-- Created with Inkscape (http://www.inkscape.org/) -->
<svg
   xmlns:svg="http://www.w3.org/2000/svg"
   xmlns="http://www.w3.org/2000/svg"
   version="1.0"
   width="40"
   height="23"
   id="svg3509">
  <defs
     id="defs3511" />
  <g
     transform="translate(-406.08576,-350.99178)"
     id="layer1">
    <path
       d="M 418.45948,350.99178 C 416.17713,350.99178 414.33803,352.86669 414.33803,355.19586 L 414.33803,360.57814 L 406.74174,352.82604 C 406.56008,352.64066 406.26743,352.64065 406.08576,352.82604 L 406.08576,372.17473 C 406.26741,372.36011 406.56007,372.36012 406.74174,372.17473 L 414.33991,364.42072 L 414.33991,369.78771 C 414.3399,372.11686 416.17527,373.99178 418.45761,373.99178 L 441.96619,373.99178 C 444.24851,373.99179 446.08389,372.11685 446.08389,369.78771 L 446.08576,355.19586 C 446.08575,352.8667 444.24665,350.99178 441.96431,350.99178 L 418.45948,350.99178 z M 426.85982,353.09191 C 426.99792,353.0954 427.13246,353.16476 427.21592,353.28509 C 427.2167,353.28622 427.21702,353.28777 427.2178,353.28891 L 430.14536,359.2144 C 430.15421,359.2323 430.16604,359.24846 430.17722,359.26413 L 431.7722,362.49082 C 431.88465,362.71822 431.79571,362.99448 431.57353,363.11053 L 429.78926,364.04392 C 429.56708,364.15997 429.2982,364.07049 429.18575,363.84309 L 426.34815,358.10505 C 426.34237,358.08593 426.3348,358.06616 426.32566,358.04767 L 425.8646,357.11619 C 425.86636,357.11475 425.86845,357.11378 425.87022,357.11236 L 425.86273,357.11236 L 425.12803,355.62621 C 425.13176,355.62176 425.1353,355.61721 425.13927,355.61282 L 425.13927,355.61091 C 425.13496,355.61421 425.13038,355.6171 425.12615,355.62047 L 424.63697,354.62971 C 424.56803,354.41669 424.65829,354.1804 424.86001,354.07502 L 426.64428,353.14163 C 426.71372,353.10536 426.7874,353.09008 426.85982,353.09191 z M 430.21096,353.88185 C 434.8685,353.88184 438.64878,357.73967 438.64878,362.49274 C 438.64877,367.24583 434.8685,371.10172 430.21096,371.10172 C 425.5534,371.10172 421.77313,367.24583 421.77313,362.49274 C 421.77313,360.21974 422.6386,358.15105 424.05034,356.61124 L 424.83377,358.19685 C 423.92449,359.3805 423.38124,360.87127 423.38124,362.49082 C 423.38122,366.33895 426.44016,369.46255 430.21096,369.46255 C 433.98174,369.46256 437.04256,366.33897 437.04256,362.49082 C 437.04257,358.64268 433.98175,355.51909 430.21096,355.5191 C 430.10357,355.5191 429.99658,355.52169 429.89046,355.52675 L 429.11265,353.95453 C 429.47219,353.90669 429.83854,353.88185 430.21096,353.88185 z"
       id="path3486"
       style="opacity:1;fill:#00f200;fill-opacity:1;fill-rule:evenodd;stroke:none;stroke-width:27.26199913;stroke-linecap:round;stroke-linejoin:miter;stroke-miterlimit:4;stroke-dasharray:none;stroke-dashoffset:0;stroke-opacity:1" />
  </g>
</svg>
