<?xml version="1.0" encoding="UTF-8" standalone="no"?>
<!-- Created with Inkscape (http://www.inkscape.org/) -->

<svg
   xmlns:dc="http://purl.org/dc/elements/1.1/"
   xmlns:cc="http://creativecommons.org/ns#"
   xmlns:rdf="http://www.w3.org/1999/02/22-rdf-syntax-ns#"
   xmlns:svg="http://www.w3.org/2000/svg"
   xmlns="http://www.w3.org/2000/svg"
   xmlns:sodipodi="http://sodipodi.sourceforge.net/DTD/sodipodi-0.dtd"
   xmlns:inkscape="http://www.inkscape.org/namespaces/inkscape"
   width="529.31995"
   height="375.7767"

preserveAspectRatio="xMinYMin meet"
viewBox="0 0 529 375"


   id="svg3524"
   sodipodi:version="0.32"
   inkscape:version="0.48.3.1 r9886"
   version="1.0"
   sodipodi:docname="lv2_port_type_control_drawing.svg"
   inkscape:output_extension="org.inkscape.output.svg.inkscape">
  <defs
     id="defs3526">
    <inkscape:perspective
       sodipodi:type="inkscape:persp3d"
       inkscape:vp_x="0 : 526.18109 : 1"
       inkscape:vp_y="0 : 1000 : 0"
       inkscape:vp_z="744.09448 : 526.18109 : 1"
       inkscape:persp3d-origin="372.04724 : 350.78739 : 1"
       id="perspective3532" />
  </defs>
  <sodipodi:namedview
     id="base"
     pagecolor="#ffffff"
     bordercolor="#666666"
     borderopacity="1.0"
     gridtolerance="10000"
     guidetolerance="10"
     objecttolerance="10"
     inkscape:pageopacity="0.0"
     inkscape:pageshadow="2"
     inkscape:zoom="0.98994948"
     inkscape:cx="236.72641"
     inkscape:cy="313.02073"
     inkscape:document-units="px"
     inkscape:current-layer="layer1"
     showgrid="false"
     inkscape:window-width="1379"
     inkscape:window-height="1017"
     inkscape:window-x="0"
     inkscape:window-y="37"
     inkscape:window-maximized="0" />
  <metadata
     id="metadata3529">
    <rdf:RDF>
      <cc:Work
         rdf:about="">
        <dc:format>image/svg+xml</dc:format>
        <dc:type
           rdf:resource="http://purl.org/dc/dcmitype/StillImage" />
        <dc:title></dc:title>
      </cc:Work>
    </rdf:RDF>
  </metadata>
  <g
     inkscape:label="Layer 1"
     inkscape:groupmode="layer"
     id="layer1"
     transform="translate(133.23141,-510.18812)">
    <path
       style="fill:#00ce00;fill-opacity:1;fill-rule:evenodd;stroke:none;stroke-width:54.27700043;stroke-linecap:round;stroke-linejoin:miter;stroke-miterlimit:4;stroke-dashoffset:0;stroke-opacity:1"
       d="M 68.6875 0 C 30.633034 0 0 30.633001 0 68.6875 L 0 307.09375 C 0 345.14825 30.633031 375.78125 68.6875 375.78125 L 460.625 375.78125 C 498.6795 375.78125 529.31252 345.14825 529.3125 307.09375 L 529.3125 68.6875 C 529.3125 30.633 498.67949 0 460.625 0 L 68.6875 0 z M 118.90625 47.46875 L 174.0625 47.46875 L 174.0625 208.75 L 210.59375 208.75 L 210.59375 259.9375 L 174.0625 259.9375 L 174.0625 312.125 L 118.90625 312.125 L 118.90625 259.9375 L 79.65625 259.9375 L 79.65625 208.75 L 118.90625 208.75 L 118.90625 47.46875 z M 139.96875 65.5 L 139.96875 208.75 L 151.46875 208.75 L 151.46875 65.5 L 139.96875 65.5 z M 139.96875 259.9375 L 139.96875 294.125 L 151.46875 294.125 L 151.46875 259.9375 L 139.96875 259.9375 z "
       transform="translate(-133.23141,510.18812)"
       id="rect3427" />
  </g>
</svg>
