<?xml version="1.0" encoding="UTF-8" standalone="no"?>
<!-- Created with Inkscape (http://www.inkscape.org/) -->
<svg
   xmlns:dc="http://purl.org/dc/elements/1.1/"
   xmlns:cc="http://creativecommons.org/ns#"
   xmlns:rdf="http://www.w3.org/1999/02/22-rdf-syntax-ns#"
   xmlns:svg="http://www.w3.org/2000/svg"
   xmlns="http://www.w3.org/2000/svg"
   xmlns:sodipodi="http://sodipodi.sourceforge.net/DTD/sodipodi-0.dtd"
   xmlns:inkscape="http://www.inkscape.org/namespaces/inkscape"
   width="529.31989"
   height="375.7767"

preserveAspectRatio="xMinYMin meet"
viewBox="0 0 529 375"

   id="svg3493"
   sodipodi:version="0.32"
   inkscape:version="0.46"
   version="1.0"
   sodipodi:docname="lv2_port_type_audio_drawing.svg"
   inkscape:output_extension="org.inkscape.output.svg.inkscape">
  <defs
     id="defs3495">
    <inkscape:perspective
       sodipodi:type="inkscape:persp3d"
       inkscape:vp_x="0 : 526.18109 : 1"
       inkscape:vp_y="0 : 1000 : 0"
       inkscape:vp_z="744.09448 : 526.18109 : 1"
       inkscape:persp3d-origin="372.04724 : 350.78739 : 1"
       id="perspective3501" />
  </defs>
  <sodipodi:namedview
     id="base"
     pagecolor="#ffffff"
     bordercolor="#666666"
     borderopacity="1.0"
     gridtolerance="10000"
     guidetolerance="10"
     objecttolerance="10"
     inkscape:pageopacity="0.0"
     inkscape:pageshadow="2"
     inkscape:zoom="0.35"
     inkscape:cx="375"
     inkscape:cy="520"
     inkscape:document-units="px"
     inkscape:current-layer="layer1"
     showgrid="false"
     inkscape:window-width="640"
     inkscape:window-height="646"
     inkscape:window-x="0"
     inkscape:window-y="37" />
  <metadata
     id="metadata3498">
    <rdf:RDF>
      <cc:Work
         rdf:about="">
        <dc:format>image/svg+xml</dc:format>
        <dc:type
           rdf:resource="http://purl.org/dc/dcmitype/StillImage" />
      </cc:Work>
    </rdf:RDF>
  </metadata>
  <g
     inkscape:label="Layer 1"
     inkscape:groupmode="layer"
     id="layer1"
     transform="translate(-78.19719,-290.18812)">
    <path
       id="rect3420"
       style="fill:#0000ff;fill-opacity:1;fill-rule:evenodd;stroke:none;stroke-width:54.27700043;stroke-linecap:round;stroke-linejoin:miter;stroke-miterlimit:4;stroke-dashoffset:0;stroke-opacity:1"
       d="M 146.88759,290.18812 L 538.82679,290.18812 C 576.88119,290.18812 607.51709,320.82402 607.51709,358.87852 L 607.51709,597.27442 C 607.51709,635.32892 576.88119,665.96482 538.82679,665.96482 L 146.88759,665.96482 C 108.83309,665.96482 78.19719,635.32892 78.19719,597.27442 L 78.19719,358.87852 C 78.19719,320.82402 108.83309,290.18812 146.88759,290.18812 z M 86.61599,468.71942 L 103.51169,465.60242 L 103.52839,461.26812 C 103.55299,454.87842 106.30029,438.80672 107.72609,436.71052 C 109.63199,433.90852 110.83569,438.06362 111.65409,450.27032 C 112.04769,456.14092 112.73409,461.27502 113.17939,461.67962 C 113.62459,462.08422 114.55939,456.67952 115.25659,449.66912 C 117.42929,427.82372 118.81759,426.77372 120.63549,445.60092 L 121.89989,458.69752 L 129.45699,460.60282 C 138.31819,462.83682 138.83489,462.46102 142.82709,450.87842 C 145.67539,442.61482 147.41509,442.92742 147.44909,451.70892 C 147.46969,457.01502 149.23489,464.02632 150.55029,464.02632 C 151.09679,464.02632 152.04849,461.89852 152.66519,459.29802 C 153.95889,453.84172 155.59779,453.18162 156.57799,457.72192 C 157.50069,461.99612 159.05229,461.68642 160.52519,456.93382 C 162.25369,451.35632 164.25929,452.04982 165.08359,458.50992 C 165.50489,461.81202 166.41349,464.02632 167.34699,464.02632 C 168.20469,464.02632 168.92179,463.49432 168.94049,462.84422 C 168.95909,462.19402 169.66749,454.21502 170.51459,445.11302 C 171.36159,436.01102 172.06999,425.59152 172.08869,421.95852 C 172.15319,409.41502 174.10039,413.48992 174.85949,427.75692 C 175.27519,435.56912 176.02309,441.96082 176.52159,441.96082 C 177.01999,441.96082 178.17619,439.83312 179.09089,437.23252 C 181.31109,430.92052 182.60419,431.27312 183.42619,438.41462 C 183.80039,441.66532 184.72889,448.93512 185.48959,454.56962 C 186.74179,463.84482 186.97479,464.43922 187.95149,460.85112 C 188.54489,458.67132 190.25619,447.07982 191.75449,435.09222 C 195.62229,404.14542 196.15859,404.06032 197.89409,434.11912 C 198.56779,445.78792 199.39399,455.98922 199.72999,456.78862 C 200.06609,457.58802 201.10759,453.69222 202.04449,448.13132 C 204.14169,435.68382 206.24669,434.84252 208.65069,445.49112 C 210.99769,455.88692 211.78739,456.35292 211.79419,447.34582 C 211.80629,431.27512 215.07529,335.44102 215.71349,332.44752 C 217.31019,324.95782 218.20539,338.53812 219.27119,386.41502 C 220.69809,450.52122 221.76529,463.82162 222.50519,426.72072 C 223.00539,401.63622 223.59069,395.74292 225.32809,398.29722 C 225.69949,398.84322 226.43489,406.23122 226.96229,414.71502 C 227.48969,423.19882 228.21529,431.91322 228.57479,434.08032 C 229.22819,438.01932 229.22869,438.01902 230.05739,433.29222 C 230.51339,430.69172 231.21469,424.39602 231.61589,419.30192 C 232.25059,411.24352 232.54589,410.33462 233.88809,412.30792 C 234.96049,413.88452 235.80519,421.70522 236.65889,437.96182 C 237.41539,452.36712 238.20029,460.10252 238.70289,458.10522 C 239.15159,456.32172 240.06559,430.15032 240.73389,399.94652 C 241.40219,369.74272 242.18469,343.33202 242.47269,341.25622 C 243.92349,330.80012 245.06369,344.48492 246.13809,385.25082 C 247.48909,436.50802 248.59879,447.23712 249.72129,419.89542 C 251.29479,381.56922 252.73879,379.43522 254.48449,412.85612 C 255.88359,439.64222 257.64969,448.86452 257.94519,430.92812 C 258.05239,424.42672 258.47129,416.97962 258.87619,414.37902 C 259.51379,410.28352 259.70659,410.07262 260.31679,412.80292 C 261.81869,419.52362 263.23079,437.00542 263.23849,448.97452 C 263.24339,456.59942 263.63089,460.91842 264.22839,460.00722 C 264.76839,459.18372 265.76089,432.26782 266.43389,400.19412 C 267.67009,341.28852 268.13399,331.63352 269.72829,331.63352 C 271.35659,331.63352 271.70599,337.03482 272.32789,371.82422 C 273.01569,410.29272 273.94949,436.20752 274.61279,435.23242 C 274.85189,434.88092 275.52609,429.04312 276.11109,422.25952 C 276.69619,415.47592 277.44409,409.52972 277.77329,409.04582 C 279.07549,407.13132 280.36819,413.24792 280.39929,421.47152 C 280.44009,432.24552 281.66659,435.79912 283.40659,430.18482 C 285.96109,421.94202 287.15309,425.83562 288.45919,446.68912 C 290.22979,474.95862 291.84659,468.50952 293.20059,427.77592 C 293.82019,409.13842 294.59739,389.61152 294.92779,384.38262 C 295.52919,374.86612 296.84419,369.47012 298.10899,371.32952 C 298.47939,371.87412 299.21319,390.21122 299.73959,412.07872 C 300.26599,433.94612 300.90449,452.14322 301.15849,452.51652 C 301.65699,453.24942 302.45109,444.55792 303.50209,426.86632 C 304.83629,404.40742 307.46669,408.71302 308.87209,435.65642 C 309.77109,452.89062 311.08099,452.06682 311.37829,434.08032 C 311.52609,425.13282 312.79449,419.77842 314.05559,422.77822 C 315.03429,425.10632 316.77649,445.91852 316.81579,455.75172 C 316.83999,461.78912 317.25659,464.02632 318.35689,464.02632 C 319.50159,464.02632 320.00739,460.51392 320.45609,449.44732 C 322.42599,400.86362 323.09209,389.59702 324.08059,388.14362 C 324.83619,387.03292 325.40269,387.04442 325.88019,388.18042 C 326.26349,389.09222 327.06009,404.58012 327.65029,422.59802 C 328.97389,463.00482 329.94859,469.48332 330.80049,443.53692 C 331.15619,432.70122 331.96379,422.48102 332.59499,420.82542 C 333.69859,417.93112 333.79309,417.95352 335.05129,421.40982 C 335.77099,423.38682 336.62379,433.42972 336.94659,443.72732 C 337.26929,454.02492 337.94469,462.45022 338.44759,462.45022 C 338.95049,462.45022 339.36189,460.07362 339.36189,457.16902 C 339.36189,450.20312 341.43829,441.66492 342.95189,442.40672 C 343.61309,442.73072 344.52309,445.24532 344.97409,447.99472 C 345.42509,450.74412 346.17409,455.29862 346.63829,458.11592 C 347.11269,460.99442 348.16929,463.23822 349.05039,463.23822 C 350.24049,463.23822 350.67729,460.76892 350.86279,452.99352 C 351.37209,431.64642 353.46659,397.38522 354.50859,393.35592 C 355.48679,389.57332 355.69849,389.43742 356.66339,391.97242 C 357.25199,393.51852 358.51089,410.36312 359.46109,429.40482 C 360.41129,448.44662 361.51879,464.02632 361.92209,464.02632 C 362.77909,464.02632 364.01899,451.95942 364.01899,443.61822 C 364.01899,440.43742 364.64739,436.57152 365.41539,435.02732 C 366.66949,432.50582 366.95279,432.46912 368.19359,434.66712 C 368.95349,436.01332 369.82779,441.57402 370.13649,447.02432 C 370.84149,459.47402 372.65469,464.02632 376.90819,464.02632 C 379.94569,464.02632 380.10039,463.70322 380.11519,457.32782 C 380.14119,446.16822 382.18189,395.87242 382.86509,389.55542 C 383.54169,383.29872 384.78559,381.94042 385.90629,386.23422 C 386.27799,387.65832 387.05869,402.02052 387.64109,418.15032 C 388.77309,449.49952 389.67109,464.66482 390.33759,463.68502 C 390.56449,463.35132 391.28189,454.60342 391.93179,444.24502 C 393.71839,415.76612 396.12329,415.28882 398.24369,442.99252 C 398.93649,452.04372 399.77209,460.47912 400.10059,461.73782 C 400.47789,463.18332 402.19979,464.02632 404.77519,464.02632 L 408.85249,464.02632 L 409.51679,450.23542 C 412.25009,393.49922 412.57979,389.93822 414.60649,395.26252 C 415.51189,397.64112 416.68649,414.86312 418.24849,448.65932 C 418.59899,456.24432 419.27019,462.45022 419.73989,462.45022 C 420.20969,462.45022 420.92879,459.16792 421.33799,455.15622 C 422.73999,441.41072 424.35649,439.79532 426.26239,450.23542 C 426.93489,453.91952 427.97149,458.70692 428.56599,460.87412 L 429.64679,464.81432 L 431.26009,461.28822 L 432.87339,457.76202 L 435.88129,460.91092 L 438.88909,464.05972 L 439.50609,454.19232 C 439.84539,448.76532 440.61779,432.62242 441.22249,418.31932 C 442.41359,390.14382 443.12749,382.06892 444.42709,382.06892 C 446.15299,382.06892 446.73909,388.36932 447.72649,417.53122 C 448.99059,454.86872 449.72109,465.39172 450.83929,462.37452 C 451.30579,461.11592 452.03809,456.18522 452.46659,451.41742 C 453.32899,441.82182 454.75379,436.69292 456.19359,438.00112 C 456.71219,438.47242 457.72129,444.18652 458.43589,450.69922 C 459.15049,457.21192 460.13879,462.90722 460.63209,463.35542 C 461.12539,463.80362 462.18289,461.83292 462.98189,458.97602 L 464.43479,453.78162 L 466.24869,458.90392 C 467.24629,461.72122 468.51069,464.02632 469.05849,464.02632 C 470.13059,464.02632 470.31649,462.61532 472.65899,436.69722 C 474.08149,420.95852 475.54079,414.68432 477.20869,417.13642 C 477.85939,418.09312 479.13069,432.55022 480.39649,453.38762 L 481.04269,464.02632 L 491.71149,464.02632 C 499.32189,464.02632 502.49309,463.46152 502.77399,462.05612 C 502.99049,460.97262 503.94859,455.13422 504.90329,449.08192 C 505.85779,443.02962 507.31739,437.08022 508.14669,435.86082 C 509.44269,433.95562 509.81189,434.50562 510.77209,439.77252 C 511.38659,443.14322 512.21529,450.00482 512.61349,455.02052 C 513.47509,465.87052 514.93909,466.00282 517.50409,455.46242 C 518.51249,451.31872 519.64699,447.47332 520.02529,446.91722 C 521.10069,445.33622 523.75389,451.60762 523.75389,455.73062 C 523.75389,459.92722 528.15209,467.17852 530.69749,467.17852 C 531.62189,467.17852 534.47169,464.34152 537.03039,460.87412 C 539.58899,457.40662 542.17609,454.56962 542.77929,454.56962 C 543.38269,454.56962 544.65079,456.30762 545.59739,458.43172 C 547.57619,462.87152 553.17209,465.58092 560.38929,465.59362 C 564.17489,465.60022 566.17759,464.63942 568.58429,461.66212 C 572.45809,456.87002 573.45039,456.77362 575.36069,461.00372 L 576.84299,464.28552 L 579.81269,460.85112 C 582.00589,458.31472 583.14529,457.85912 584.16949,459.10882 C 585.80439,461.10362 599.70069,465.60242 604.22749,465.60242 C 607.28809,465.60242 607.37359,465.81652 607.37359,473.48292 L 607.37359,481.36342 L 598.70519,481.36342 C 585.06039,481.36342 548.53419,484.52732 541.44269,486.32352 C 537.90489,487.21962 534.05369,487.92022 532.88449,487.88062 C 531.71529,487.84092 529.72309,489.23872 528.45739,490.98682 L 526.15619,494.16522 L 523.40789,489.00242 L 520.65959,483.83962 L 519.67269,487.72382 C 519.12999,489.86022 518.36479,494.79972 517.97249,498.70062 C 516.42069,514.12732 513.72619,513.05002 511.88449,496.26662 C 511.16999,489.75392 510.15019,484.03002 509.61829,483.54682 C 508.00789,482.08352 505.94869,485.69822 504.58759,492.37742 C 502.89679,500.67392 500.71209,500.42882 497.79979,491.61582 C 495.25869,483.92632 492.85899,481.83212 489.56149,484.42662 C 487.24989,486.24552 486.95759,487.32352 485.15809,500.67072 C 484.38729,506.38712 483.39719,509.73332 482.47639,509.73332 C 480.88459,509.73332 480.59619,508.63852 478.63079,495.13572 C 477.28769,485.90772 474.89689,480.51732 474.01659,484.73212 C 473.76989,485.91332 473.09799,493.11952 472.52339,500.74582 C 470.93779,521.79322 469.22059,521.46132 467.01649,499.68152 C 465.29869,482.70602 464.20419,480.41492 463.37629,492.06112 C 461.94829,512.14712 458.64359,514.91922 457.59269,496.91272 C 456.89789,485.00992 455.61179,480.15222 454.73349,486.11402 C 454.41609,488.26892 453.61179,501.37842 452.94619,515.24622 C 451.12759,553.13672 449.38209,553.93612 447.54149,517.72132 C 446.07439,488.85562 445.53619,482.93952 444.37719,482.93952 C 442.85429,482.93952 442.37119,487.99222 441.22759,515.88182 C 440.64459,530.09932 439.89269,542.13592 439.55669,542.63002 C 438.27279,544.51742 437.03859,538.62262 436.47969,527.93492 C 436.16029,521.82492 435.50869,509.73332 435.03189,501.06472 L 434.16489,485.30372 L 432.71019,494.23892 C 430.05199,510.56622 428.47699,510.36572 426.20809,493.41122 C 424.68509,482.02972 423.57679,483.74942 422.55829,499.07482 C 422.17009,504.91522 421.57249,510.76652 421.23029,512.07762 C 419.47909,518.78692 417.09649,510.43872 415.95049,493.57822 C 415.27869,483.69342 414.32919,480.87102 412.85539,484.37702 C 412.52299,485.16762 411.77469,494.91972 411.19249,506.04842 C 410.61019,517.17712 409.85519,528.67982 409.51459,531.61002 C 408.44049,540.85132 406.79879,534.76902 405.53619,516.87082 L 404.34549,499.99222 L 402.91059,507.22692 C 401.41609,514.76242 399.95529,516.41612 398.95629,511.70342 C 398.33759,508.78452 396.26019,488.52182 396.16899,484.51562 C 396.12279,482.48702 395.97539,482.50262 395.13069,484.62542 C 394.58919,485.98602 393.70089,495.96942 393.15669,506.81062 C 392.24109,525.05182 390.57109,535.11022 388.87279,532.61332 C 388.48689,532.04602 387.64919,521.35792 387.01129,508.86202 C 386.37349,496.36612 385.49599,485.61942 385.06139,484.98052 C 383.39249,482.52692 382.52979,488.60532 381.81149,507.87872 C 381.02779,528.90922 379.91229,539.92752 378.83229,537.30642 C 378.47709,536.44442 377.36809,529.71042 376.36799,522.34212 C 375.03059,512.48942 373.86569,507.99022 371.96439,505.33522 C 370.22219,502.90232 369.37919,499.98072 369.37919,496.37522 C 369.37919,489.57482 367.46079,481.95072 366.23139,483.86492 C 365.72309,484.65622 365.11849,492.39612 364.88769,501.06472 C 364.65699,509.73332 363.94289,518.18042 363.30099,519.83602 C 362.18009,522.72662 362.08099,522.70102 360.80299,519.19032 C 360.07099,517.17962 359.22589,509.44182 358.92479,501.99522 C 358.33869,487.49632 357.08039,481.47732 355.21029,484.22682 C 354.60209,485.12092 353.62179,498.85002 353.03189,514.73602 C 351.97469,543.20382 351.15099,550.71202 349.08539,550.71202 C 347.75489,550.71202 347.32439,546.54092 345.26659,513.70782 C 344.34419,498.99012 343.15199,486.30522 342.61739,485.51912 C 342.03589,484.66422 341.35219,487.89802 340.91599,493.56642 C 340.17519,503.19182 338.95219,508.08022 337.73299,506.28782 C 337.36259,505.74322 336.51479,500.62172 335.84889,494.90672 C 335.18299,489.19162 334.34389,484.51562 333.98409,484.51562 C 333.62429,484.51562 332.75369,493.50492 332.04939,504.49182 C 331.34509,515.47882 330.50519,524.85572 330.18289,525.32962 C 328.86429,527.26822 327.76059,521.16042 327.11229,508.33692 C 326.29099,492.09152 325.38139,482.47872 324.75289,483.40272 C 324.50019,483.77422 323.58569,501.02132 322.72079,521.72942 C 320.91139,565.05222 320.42399,570.78342 318.75739,568.33322 C 317.72169,566.81062 314.87669,514.75912 314.75259,495.06132 C 314.68719,484.68162 313.00769,487.03482 312.10449,498.77172 C 310.69289,517.11442 308.76809,517.94442 307.70049,500.67072 C 306.53189,481.76252 305.37999,482.25792 304.62769,501.99222 C 303.11169,541.75842 302.69279,547.71492 301.45449,547.10942 C 299.61669,546.21072 298.89129,539.09902 298.75099,520.60322 C 298.68119,511.41162 298.28449,499.35442 297.86939,493.80942 C 297.23599,485.34882 296.99779,484.48792 296.38809,488.45592 C 295.98859,491.05652 295.60429,500.98592 295.53419,510.52132 C 295.33809,537.18992 293.27129,585.64772 292.21159,588.42192 C 291.38339,590.59012 291.19299,590.60482 290.70019,588.53852 C 290.39019,587.23822 289.36479,565.60622 288.42149,540.46732 C 287.47829,515.32852 286.32269,492.27792 285.85359,489.24392 L 285.00059,483.72762 L 284.21849,488.45592 C 282.88659,496.50802 282.59239,497.35502 281.47899,496.34332 C 280.88519,495.80382 280.39199,493.80842 280.38289,491.90912 C 280.37389,490.00982 279.89889,487.39202 279.32729,486.09172 C 278.52699,484.27102 278.27639,484.81442 278.23749,488.45592 C 278.00909,509.78942 275.07449,588.75542 274.45529,590.22832 C 272.57239,594.70742 271.94979,585.22462 271.21189,540.82752 C 270.78359,515.05712 270.08659,493.97222 269.66289,493.97222 C 268.87029,493.97222 267.98809,522.93452 266.97439,582.23412 C 266.25059,624.57552 265.63909,634.50622 264.01759,630.24652 C 263.28869,628.33162 262.51779,605.65572 261.95729,569.64212 C 261.46459,537.99252 260.76629,508.90582 260.40529,505.00502 C 259.77229,498.16522 259.71249,498.06732 258.72609,502.25662 C 257.30319,508.29992 256.10569,506.46762 254.58149,495.91492 C 253.42509,487.90872 253.18599,487.35822 252.48229,491.08062 C 252.04549,493.39112 251.33259,512.37752 250.89809,533.27282 C 250.15829,568.85172 249.48649,576.68212 247.74609,570.01432 C 246.41469,564.91332 245.09419,535.88342 245.05789,510.91542 C 245.03799,497.26242 244.59769,486.09172 244.07939,486.09172 C 242.93219,486.09172 242.01929,515.72772 241.26339,577.50582 C 240.56919,634.24152 239.87779,650.95492 238.31949,648.66402 C 237.58869,647.58942 236.77209,619.12422 236.01269,568.25332 C 235.36629,524.94232 234.55169,489.08622 234.20259,488.57302 C 233.85339,488.05992 232.96679,495.90932 232.23229,506.01622 C 231.49779,516.12302 230.50879,525.88142 230.03449,527.70152 C 229.20349,530.89022 229.15079,530.86732 228.58899,527.07042 C 228.26829,524.90332 227.72289,516.39232 227.37699,508.15722 C 226.59919,489.63682 225.78619,483.41662 224.52549,486.34082 C 224.02399,487.50412 223.60629,510.17662 223.59729,536.72412 C 223.58139,583.34682 223.15229,594.84292 221.42779,594.84292 C 219.69419,594.84292 219.18369,586.05542 218.08589,537.31512 C 217.46109,509.57572 216.56789,485.87332 216.10109,484.64312 C 215.12739,482.07722 214.25309,519.04842 213.36439,600.35932 C 212.78229,653.62212 211.97879,667.48692 210.25629,653.98812 C 209.85549,650.84732 209.09129,613.38152 208.55789,570.73082 C 208.02459,528.08022 207.17189,491.05652 206.66309,488.45592 C 205.13539,480.64872 203.79769,483.05702 202.89569,495.23842 C 201.95669,507.92012 200.62109,514.46162 198.97079,514.46162 C 197.55829,514.46162 196.94829,509.86122 196.52619,496.02702 C 196.33579,489.78882 195.86469,484.22112 195.47919,483.65432 C 193.69119,481.02572 192.48649,485.61142 192.43369,495.24732 C 192.30839,518.10722 190.01349,536.56152 187.71609,533.18392 C 187.42849,532.76112 186.19759,522.87892 184.98089,511.22362 C 182.17399,484.33702 181.91119,482.62612 180.75009,483.68122 C 180.22309,484.16002 179.48259,486.62242 179.10449,489.15312 C 178.72639,491.68382 177.64599,494.69002 176.70359,495.83352 C 175.76119,496.97692 173.93889,501.40772 172.65399,505.67952 L 170.31769,513.44662 L 167.35209,501.73932 C 165.72089,495.30032 163.95269,488.39162 163.42259,486.38672 C 162.64619,483.45042 161.78739,482.83742 159.00629,483.23452 C 155.99899,483.66402 155.32489,484.64202 153.77829,490.82002 C 152.80179,494.72092 151.34379,497.91252 150.53829,497.91252 C 149.73269,497.91252 148.42479,494.89822 147.63179,491.21412 C 146.06939,483.95512 144.24939,482.30892 144.24939,488.15462 C 144.24939,490.15612 143.58689,493.12572 142.77719,494.75372 C 141.35579,497.61162 141.27929,497.59482 140.56089,494.26692 C 140.15159,492.37112 139.11909,490.82002 138.26629,490.82002 C 137.41359,490.82002 135.74299,489.93352 134.55369,488.84992 C 132.77209,487.22652 132.20469,487.29592 131.33029,489.24392 C 130.42569,491.25942 129.95809,491.06272 128.15959,487.91032 L 126.04989,484.21242 L 124.96519,488.40692 C 124.36869,490.71382 123.88059,493.57722 123.88059,494.76992 C 123.88059,495.96262 123.39729,497.37762 122.80649,497.91432 C 121.51849,499.08462 119.60519,492.28942 119.55979,486.38312 C 119.53159,482.72342 119.37819,482.52762 118.42489,484.93472 C 117.81869,486.46542 116.77879,496.21762 116.11399,506.60612 C 114.54719,531.08932 113.27469,531.67842 111.06079,508.94522 C 110.46989,502.87722 109.96219,494.36632 109.93259,490.03202 C 109.86519,480.16852 108.35059,483.44272 107.43659,495.42772 C 106.33009,509.93822 103.93129,509.89162 102.75879,495.33692 C 101.66449,481.75342 101.01299,481.34372 80.73069,481.48352 C 75.47079,511.79692 83.48879,477.20672 86.61599,468.71942 z" />
  </g>
</svg>
