<?xml version="1.0" encoding="UTF-8" standalone="no"?>
<!-- Created with Inkscape (http://www.inkscape.org/) -->
<svg
   xmlns:dc="http://purl.org/dc/elements/1.1/"
   xmlns:cc="http://creativecommons.org/ns#"
   xmlns:rdf="http://www.w3.org/1999/02/22-rdf-syntax-ns#"
   xmlns:svg="http://www.w3.org/2000/svg"
   xmlns="http://www.w3.org/2000/svg"
   xmlns:sodipodi="http://sodipodi.sourceforge.net/DTD/sodipodi-0.dtd"
   xmlns:inkscape="http://www.inkscape.org/namespaces/inkscape"
   width="529.31989"
   height="375.7767"

preserveAspectRatio="xMinYMin meet"
viewBox="0 0 529 375"

   id="svg3462"
   sodipodi:version="0.32"
   inkscape:version="0.46"
   version="1.0"
   sodipodi:docname="lv2_port_type_atom_drawing.svg"
   inkscape:output_extension="org.inkscape.output.svg.inkscape">
  <defs
     id="defs3464">
    <inkscape:perspective
       sodipodi:type="inkscape:persp3d"
       inkscape:vp_x="0 : 526.18109 : 1"
       inkscape:vp_y="0 : 1000 : 0"
       inkscape:vp_z="744.09448 : 526.18109 : 1"
       inkscape:persp3d-origin="372.04724 : 350.78739 : 1"
       id="perspective3470" />
  </defs>
  <sodipodi:namedview
     id="base"
     pagecolor="#ffffff"
     bordercolor="#666666"
     borderopacity="1.0"
     gridtolerance="10000"
     guidetolerance="10"
     objecttolerance="10"
     inkscape:pageopacity="0.0"
     inkscape:pageshadow="2"
     inkscape:zoom="0.35"
     inkscape:cx="375"
     inkscape:cy="520"
     inkscape:document-units="px"
     inkscape:current-layer="layer1"
     showgrid="false"
     inkscape:window-width="640"
     inkscape:window-height="646"
     inkscape:window-x="36"
     inkscape:window-y="145" />
  <metadata
     id="metadata3467">
    <rdf:RDF>
      <cc:Work
         rdf:about="">
        <dc:format>image/svg+xml</dc:format>
        <dc:type
           rdf:resource="http://purl.org/dc/dcmitype/StillImage" />
      </cc:Work>
    </rdf:RDF>
  </metadata>
  <g
     inkscape:label="Layer 1"
     inkscape:groupmode="layer"
     id="layer1"
     transform="translate(-69.625764,-167.33098)">
    <path
       id="rect3449"
       style="fill:#ff0000;fill-opacity:1;fill-rule:evenodd;stroke:none;stroke-width:54.27700043;stroke-linecap:round;stroke-linejoin:miter;stroke-miterlimit:4;stroke-dashoffset:0;stroke-opacity:1"
       d="M 138.31616,167.33098 L 530.25536,167.33098 C 568.30976,167.33098 598.94566,197.96688 598.94566,236.02138 L 598.94566,474.41728 C 598.94566,512.47178 568.30976,543.10768 530.25536,543.10768 L 138.31616,543.10768 C 100.26166,543.10768 69.625764,512.47178 69.625764,474.41728 L 69.625764,236.02138 C 69.625764,197.96688 100.26166,167.33098 138.31616,167.33098 z M 210.07496,256.14238 C 196.43986,256.14238 186.16936,262.87258 179.26456,276.33308 C 172.44706,289.70638 169.03826,309.85348 169.03826,336.77438 C 169.03826,363.60808 172.44706,383.75518 179.26456,397.21568 C 186.16936,410.58898 196.43986,417.27558 210.07496,417.27558 C 223.79786,417.27558 234.06776,410.58898 240.88596,397.21568 C 247.79076,383.75518 251.24316,363.60808 251.24376,336.77438 C 251.24316,309.85348 247.79076,289.70638 240.88596,276.33308 C 234.06776,262.87258 223.79786,256.14238 210.07496,256.14238 M 210.07496,235.16488 C 232.01436,235.16488 248.75206,243.86198 260.28996,261.25548 C 271.91516,278.56178 277.72706,303.73468 277.72776,336.77438 C 277.72706,369.72618 271.91516,394.89918 260.28996,412.29328 C 248.75206,429.59958 232.01436,438.25298 210.07496,438.25298 C 188.13616,438.25298 171.35416,429.59958 159.72896,412.29328 C 148.19166,394.89918 142.42276,369.72618 142.42276,336.77438 C 142.42276,303.73468 148.19166,278.56178 159.72896,261.25548 C 171.35416,243.86198 188.13616,235.16488 210.07496,235.16488 M 363.86636,238.70458 L 386.15476,238.70458 L 317.97836,459.36138 L 295.68986,459.36138 L 363.86636,238.70458 M 419.71876,412.16238 L 462.98476,412.16238 L 462.98476,262.82898 L 415.91666,272.26848 L 415.91666,248.14478 L 462.72296,238.70458 L 489.20686,238.70458 L 489.20686,412.16238 L 532.47286,412.16238 L 532.47286,434.45088 L 419.71876,434.45088 L 419.71876,412.16238" />
  </g>
</svg>
