<?xml version="1.0" encoding="UTF-8" standalone="no"?>
<!-- Created with Inkscape (http://www.inkscape.org/) -->
<svg
   xmlns:dc="http://purl.org/dc/elements/1.1/"
   xmlns:cc="http://creativecommons.org/ns#"
   xmlns:rdf="http://www.w3.org/1999/02/22-rdf-syntax-ns#"
   xmlns:svg="http://www.w3.org/2000/svg"
   xmlns="http://www.w3.org/2000/svg"
   xmlns:sodipodi="http://sodipodi.sourceforge.net/DTD/sodipodi-0.dtd"
   xmlns:inkscape="http://www.inkscape.org/namespaces/inkscape"
   version="1.0"
   width="40"
   height="23"
   id="svg3509"
   sodipodi:version="0.32"
   inkscape:version="0.46"
   sodipodi:docname="toggle_in.svg"
   inkscape:output_extension="org.inkscape.output.svg.inkscape">
  <metadata
     id="metadata4557">
    <rdf:RDF>
      <cc:Work
         rdf:about="">
        <dc:format>image/svg+xml</dc:format>
        <dc:type
           rdf:resource="http://purl.org/dc/dcmitype/StillImage" />
      </cc:Work>
    </rdf:RDF>
  </metadata>
  <sodipodi:namedview
     inkscape:window-height="646"
     inkscape:window-width="640"
     inkscape:pageshadow="2"
     inkscape:pageopacity="0.0"
     guidetolerance="10.0"
     gridtolerance="10.0"
     objecttolerance="10.0"
     borderopacity="1.0"
     bordercolor="#666666"
     pagecolor="#ffffff"
     id="base"
     showgrid="false"
     inkscape:zoom="13.325"
     inkscape:cx="20"
     inkscape:cy="11.5"
     inkscape:window-x="204"
     inkscape:window-y="233"
     inkscape:current-layer="svg3509" />
  <defs
     id="defs3511">
    <inkscape:perspective
       sodipodi:type="inkscape:persp3d"
       inkscape:vp_x="0 : 11.5 : 1"
       inkscape:vp_y="0 : 1000 : 0"
       inkscape:vp_z="40 : 11.5 : 1"
       inkscape:persp3d-origin="20 : 7.6666667 : 1"
       id="perspective4559" />
  </defs>
  <g
     transform="translate(-414.8973,-370.16565)"
     id="layer1"
     style="fill:#00be00;fill-opacity:1">
    <path
       d="M 427.23236,370.16565 C 424.95163,370.16564 423.11568,372.04057 423.11568,374.36972 L 423.11568,379.73288 L 415.55282,372.00948 C 415.37128,371.82409 415.07884,371.82408 414.8973,372.00948 L 414.8973,391.35816 C 415.07883,391.54354 415.37128,391.54356 415.55282,391.35816 L 423.11568,383.63475 L 423.11568,383.77056 L 423.19809,383.77056 L 433.11709,383.77056 L 441.06015,377.05704 C 441.61539,376.58776 442.43236,376.6679 442.89187,377.23492 C 443.35139,377.80191 443.27479,378.63434 442.71956,379.10361 L 434.60231,385.96632 C 434.60026,385.96804 434.59876,385.97033 434.59669,385.97205 C 434.3436,386.2628 433.96652,386.4464 433.54785,386.4464 C 433.46985,386.44638 433.39386,386.43957 433.31936,386.42727 L 423.42658,386.42727 C 423.35232,386.44053 423.27619,386.44831 423.19809,386.44831 L 423.11568,386.44831 L 423.11568,388.96157 C 423.11568,391.29071 424.95163,393.16566 427.23236,393.16565 L 450.72256,393.16565 C 453.0033,393.16563 454.83924,391.29072 454.83924,388.96157 L 454.83924,386.42727 L 444.79101,386.42727 C 444.0703,386.42728 443.4912,385.83397 443.4912,385.09795 C 443.49121,384.36192 444.07029,383.77056 444.79101,383.77056 L 453.63683,383.77056 L 454.83924,383.77056 L 454.83924,374.36972 C 454.83924,372.04059 453.0033,370.16565 450.72256,370.16565 L 427.23236,370.16565 z M 454.83924,386.42727 L 454.8973,386.42727 L 454.8973,386.40049 L 454.83924,386.40049 L 454.83924,386.42727 z M 433.11709,383.77056 L 433.07401,383.8069 C 433.11132,383.7934 433.14953,383.78087 433.18825,383.77056 L 433.11709,383.77056 z"
       id="path3484"
       style="opacity:1;fill:#00be00;fill-opacity:1;fill-rule:evenodd;stroke:none;stroke-width:54.27700043000000107;stroke-linecap:round;stroke-linejoin:miter;stroke-miterlimit:4;stroke-dasharray:none;stroke-dashoffset:0;stroke-opacity:1" />
  </g>
</svg>
